<svg width="996" height="643" viewBox="0 0 996 643" fill="none" xmlns="http://www.w3.org/2000/svg">
<path d="M708.932 628.04H514.417C513.386 628.038 512.396 627.557 511.667 626.703C510.937 625.848 510.527 624.688 510.525 623.479V580.518H512.082V623.479C512.083 624.205 512.329 624.9 512.767 625.413C513.205 625.926 513.798 626.215 514.417 626.216H708.932C709.551 626.215 710.145 625.926 710.583 625.413C711.021 624.9 711.267 624.205 711.268 623.479V580.218H712.824V623.479C712.823 624.688 712.413 625.848 711.683 626.703C710.953 627.557 709.964 628.038 708.932 628.04V628.04Z" fill="#3F3D56"/>
<path d="M779.445 579.606H322.357V581.431H779.445V579.606Z" fill="#3F3D56"/>
<path d="M322.39 596.066C329.785 596.066 335.78 589.041 335.78 580.376C335.78 571.711 329.785 564.686 322.39 564.686C314.995 564.686 309 571.711 309 580.376C309 589.041 314.995 596.066 322.39 596.066Z" fill="#0000FF"/>
<path d="M458.457 596.066C465.852 596.066 471.847 589.041 471.847 580.376C471.847 571.711 465.852 564.686 458.457 564.686C451.062 564.686 445.067 571.711 445.067 580.376C445.067 589.041 451.062 596.066 458.457 596.066Z" fill="#0000FF"/>
<path d="M550.799 642.184C558.194 642.184 564.189 635.159 564.189 626.494C564.189 617.828 558.194 610.803 550.799 610.803C543.404 610.803 537.409 617.828 537.409 626.494C537.409 635.159 543.404 642.184 550.799 642.184Z" fill="#3F3D56"/>
<path d="M621 642.184C628.395 642.184 634.39 635.159 634.39 626.494C634.39 617.828 628.395 610.803 621 610.803C613.605 610.803 607.61 617.828 607.61 626.494C607.61 635.159 613.605 642.184 621 642.184Z" fill="#CCCCCC"/>
<path d="M586.982 596.066C594.377 596.066 600.372 589.041 600.372 580.376C600.372 571.711 594.377 564.686 586.982 564.686C579.587 564.686 573.592 571.711 573.592 580.376C573.592 589.041 579.587 596.066 586.982 596.066Z" fill="#0000FF"/>
<path d="M777.61 596.066C785.005 596.066 791 589.041 791 580.376C791 571.711 785.005 564.686 777.61 564.686C770.215 564.686 764.22 571.711 764.22 580.376C764.22 589.041 770.215 596.066 777.61 596.066Z" fill="#0000FF"/>
<path d="M712.046 596.066C719.441 596.066 725.436 589.041 725.436 580.376C725.436 571.711 719.441 564.686 712.046 564.686C704.651 564.686 698.656 571.711 698.656 580.376C698.656 589.041 704.651 596.066 712.046 596.066Z" fill="#0000FF"/>
<path d="M363.912 581.431C363.705 581.431 363.507 581.334 363.361 581.163C363.215 580.992 363.133 580.76 363.133 580.518V535.494C363.134 534.285 363.545 533.126 364.274 532.271C365.004 531.416 365.993 530.935 367.025 530.934H404.913C405.12 530.934 405.318 531.03 405.464 531.201C405.61 531.372 405.692 531.604 405.692 531.846C405.692 532.088 405.61 532.32 405.464 532.491C405.318 532.662 405.12 532.758 404.913 532.758H367.025C366.406 532.759 365.812 533.047 365.375 533.56C364.937 534.073 364.691 534.769 364.69 535.494V580.518C364.69 580.76 364.608 580.992 364.462 581.163C364.316 581.334 364.118 581.431 363.912 581.431V581.431Z" fill="#3F3D56"/>
<path d="M406.694 547.195C414.089 547.195 420.084 540.17 420.084 531.505C420.084 522.839 414.089 515.814 406.694 515.814C399.299 515.814 393.304 522.839 393.304 531.505C393.304 540.17 399.299 547.195 406.694 547.195Z" fill="#E6E6E6"/>
<path d="M663.593 580.518H662.036V535.494C662.037 534.285 662.448 533.126 663.178 532.271C663.907 531.416 664.896 530.935 665.928 530.934H703.816V532.758H665.928C665.309 532.759 664.716 533.047 664.278 533.56C663.84 534.073 663.594 534.769 663.593 535.494V580.518Z" fill="#3F3D56"/>
<path d="M705.597 547.195C712.992 547.195 718.987 540.17 718.987 531.505C718.987 522.839 712.992 515.814 705.597 515.814C698.202 515.814 692.207 522.839 692.207 531.505C692.207 540.17 698.202 547.195 705.597 547.195Z" fill="#E6E6E6"/>
<path d="M765.821 71.3984L686.191 204.523L916.37 346.395L996 213.271L765.821 71.3984Z" fill="white"/>
<path d="M765.821 71.3984L686.191 204.523L916.37 346.395L996 213.271L765.821 71.3984ZM914.875 340.188L692.306 203.006L767.316 77.6055L989.885 214.788L914.875 340.188Z" fill="#E5E5E5"/>
<path d="M741.464 116.47L739.154 120.332L964.895 259.469L967.205 255.607L741.464 116.47Z" fill="#E5E5E5"/>
<path d="M709.789 169.424L707.479 173.286L933.219 312.423L935.529 308.561L709.789 169.424Z" fill="#E5E5E5"/>
<path d="M828.597 110.091L748.967 243.215L752.772 245.56L832.402 112.436L828.597 110.091Z" fill="#E5E5E5"/>
<path d="M956.052 188.649L876.422 321.773L872.459 319.692L952.247 186.303L956.052 188.649Z" fill="#E5E5E5"/>
<path d="M878.196 322.867L876.422 321.773L872.459 319.692L872.312 319.24L870.146 312.619L854.121 263.67L851.955 257.049L824.404 172.875L822.237 166.254L814.449 142.45L812.607 136.823L799.769 97.6083L797.602 90.987L803.487 94.6136L805.654 101.235L815.642 131.751L817.482 137.378L828.122 169.881L830.288 176.502L857.839 260.676L860.006 267.298L875.497 314.613L876.03 316.246L877.338 320.241L878.196 322.867Z" fill="#E5E5E5"/>
<path d="M869.303 278.996H867.085V217.311C867.085 212.623 866.176 207.98 864.408 203.649C862.641 199.317 860.05 195.382 856.784 192.066C853.518 188.751 849.641 186.121 845.374 184.327C841.107 182.533 836.533 181.61 831.915 181.61H703.171C698.552 181.61 693.979 182.533 689.711 184.327C685.444 186.121 681.567 188.751 678.301 192.066C675.035 195.382 672.445 199.317 670.677 203.649C668.91 207.98 668 212.623 668 217.311V555.718C668 560.406 668.91 565.049 670.677 569.38C672.445 573.712 675.035 577.647 678.301 580.963C681.567 584.278 685.444 586.908 689.711 588.702C693.978 590.496 698.552 591.419 703.171 591.419H831.915C841.242 591.419 850.188 587.658 856.784 580.963C863.38 574.267 867.085 565.187 867.085 555.718V322.904H869.303V278.996Z" fill="#3F3D56"/>
<path d="M833.334 190.898H816.528C817.301 192.821 817.596 194.908 817.387 196.974C817.178 199.041 816.472 201.023 815.331 202.747C814.189 204.471 812.648 205.884 810.842 206.861C809.036 207.838 807.021 208.348 804.975 208.349H731.219C729.173 208.349 727.158 207.838 725.352 206.861C723.546 205.884 722.005 204.471 720.863 202.747C719.722 201.023 719.016 199.041 718.807 196.974C718.598 194.908 718.893 192.821 719.666 190.898H703.97C697.004 190.898 690.323 193.707 685.397 198.707C680.472 203.707 677.705 210.488 677.705 217.559V555.47C677.705 558.971 678.384 562.438 679.704 565.673C681.024 568.907 682.958 571.846 685.397 574.322C687.836 576.798 690.732 578.762 693.918 580.102C697.105 581.442 700.52 582.131 703.969 582.131H833.334C836.783 582.131 840.198 581.442 843.385 580.102C846.571 578.762 849.467 576.798 851.906 574.322C854.345 571.846 856.279 568.907 857.599 565.673C858.919 562.438 859.599 558.971 859.599 555.47V555.47V217.559C859.599 214.058 858.919 210.591 857.599 207.356C856.279 204.122 854.345 201.183 851.906 198.707C849.467 196.231 846.571 194.267 843.385 192.927C840.198 191.588 836.783 190.898 833.334 190.898Z" fill="white"/>
<path d="M796.368 285.564H740.936V299.142H796.368V285.564Z" fill="#0000FF"/>
<path d="M799.007 343.908H738.297V357.487H799.007V343.908Z" fill="#E5E5E5"/>
<path d="M836.401 373.076H700.902V386.654H836.401V373.076Z" fill="#E5E5E5"/>
<path d="M836.401 402.243H700.902V415.822H836.401V402.243Z" fill="#E5E5E5"/>
<path d="M796.368 466.891H740.936V487.465H796.368V466.891Z" fill="#0000FF"/>
<path d="M890.359 183.019C893.746 183.019 896.493 180.231 896.493 176.792C896.493 173.353 893.746 170.565 890.359 170.565C886.971 170.565 884.225 173.353 884.225 176.792C884.225 180.231 886.971 183.019 890.359 183.019Z" fill="#0000FF"/>
<path d="M651.648 221.601C629.322 228.599 605.355 227.721 583.829 219.115C562.304 210.51 544.553 194.71 533.6 174.408C522.647 154.105 519.171 130.557 523.763 107.775C528.355 84.9921 540.732 64.3855 558.784 49.4658C576.836 34.5461 599.447 26.2364 622.764 25.9526C646.081 25.6688 668.662 33.4284 686.658 47.9093C704.654 62.3903 716.953 82.6966 721.459 105.368C725.964 128.04 722.398 151.674 711.368 172.244C705.136 183.941 696.649 194.326 686.398 202.798C676.147 211.271 664.336 217.661 651.648 221.601V221.601ZM593.722 31.3507C540.919 47.9023 510.902 103.877 526.811 156.129C542.72 208.38 598.622 237.424 651.426 220.872C704.23 204.321 734.246 148.345 718.337 96.094C702.428 43.8427 646.526 14.7991 593.722 31.3507V31.3507Z" fill="#2F2E41"/>
<path d="M682.052 140.576L682.043 140.585L642.46 181.7L582.533 172.257L581.501 172.095L567.917 117.753L604.85 69.8447L605.467 70.003L663.329 84.916L682.052 140.576Z" fill="#0000FF"/>
<path opacity="0.3" d="M682.043 140.585L642.46 181.7L582.533 172.257L618.923 125.791L682.043 140.585Z" fill="black"/>
<path opacity="0.1" d="M682.052 140.576L618.923 125.791L605.467 70.003L663.329 84.916L682.052 140.576Z" fill="black"/>
<path d="M572.25 134.477L571.873 134.19L609.317 86.0666L669.044 101.487L668.917 101.947L609.497 86.6062L572.25 134.477Z" fill="#F2F2F2"/>
<path d="M576.861 152.94L576.49 152.645L614.128 106.026L614.273 106.057L674.346 118.75L674.24 119.215L614.312 106.553L576.861 152.94Z" fill="#F2F2F2"/>
<path d="M603.567 175.698L603.208 175.389L641.992 131.202L624.926 75.1492L625.384 75.0056L642.527 131.311L603.567 175.698Z" fill="#F2F2F2"/>
<path d="M625.103 179.091L624.743 178.783L661.982 135.892L645.068 80.3404L645.526 80.1969L662.517 135.999L625.103 179.091Z" fill="#F2F2F2"/>
<path d="M667.785 155.575L605.445 142.954L605.41 142.81L591.481 86.9466L591.945 86.8264L605.839 142.546L667.887 155.109L667.785 155.575Z" fill="#F2F2F2"/>
<path d="M653.805 170.103L592.667 159.274L592.631 159.126L578.995 103.141L579.46 103.023L593.06 158.86L653.895 169.635L653.805 170.103Z" fill="#F2F2F2"/>
<path d="M664.674 51.0319C674.844 47.8438 680.605 37.1005 677.541 27.0361C674.477 16.9717 663.748 11.3974 653.577 14.5855C643.406 17.7736 637.645 28.5168 640.709 38.5812C643.773 48.6456 654.503 54.22 664.674 51.0319Z" fill="#3F3D56"/>
<path d="M4.26 209V167.72H14.7V183.92H28.08V167.72H38.52V209H28.08V192.62H14.7V209H4.26ZM59.9334 209.48C57.2134 209.48 54.9534 209.32 53.1534 209C51.3534 208.68 49.9334 208.16 48.8934 207.44C47.8534 206.72 47.0934 205.76 46.6134 204.56C46.1334 203.36 45.8134 201.86 45.6534 200.06C45.5334 198.26 45.4734 196.12 45.4734 193.64C45.4734 191.16 45.5334 189.04 45.6534 187.28C45.8134 185.48 46.1334 183.98 46.6134 182.78C47.0934 181.58 47.8534 180.62 48.8934 179.9C49.9334 179.18 51.3534 178.68 53.1534 178.4C54.9534 178.08 57.2134 177.92 59.9334 177.92C62.6934 177.92 64.9734 178.08 66.7734 178.4C68.5734 178.68 69.9934 179.18 71.0334 179.9C72.0734 180.62 72.8334 181.58 73.3134 182.78C73.7934 183.98 74.0934 185.48 74.2134 187.28C74.3734 189.04 74.4534 191.16 74.4534 193.64C74.4534 196.12 74.3734 198.26 74.2134 200.06C74.0934 201.86 73.7934 203.36 73.3134 204.56C72.8334 205.76 72.0734 206.72 71.0334 207.44C69.9934 208.16 68.5734 208.68 66.7734 209C64.9734 209.32 62.6934 209.48 59.9334 209.48ZM59.9334 202.16C61.1334 202.16 62.0734 202.08 62.7534 201.92C63.4334 201.76 63.9134 201.4 64.1934 200.84C64.4734 200.28 64.6334 199.42 64.6734 198.26C64.7534 197.1 64.7934 195.56 64.7934 193.64C64.7934 191.72 64.7534 190.2 64.6734 189.08C64.6334 187.96 64.4734 187.12 64.1934 186.56C63.9134 186 63.4334 185.64 62.7534 185.48C62.0734 185.32 61.1334 185.24 59.9334 185.24C58.7334 185.24 57.7934 185.32 57.1134 185.48C56.4734 185.64 56.0134 186 55.7334 186.56C55.4534 187.12 55.2734 187.96 55.1934 189.08C55.1534 190.2 55.1334 191.72 55.1334 193.64C55.1334 195.56 55.1534 197.1 55.1934 198.26C55.2734 199.42 55.4534 200.28 55.7334 200.84C56.0134 201.4 56.4734 201.76 57.1134 201.92C57.7934 202.08 58.7334 202.16 59.9334 202.16ZM80.888 209V164.42H90.608V209H80.888ZM105.496 209.48C103.576 209.48 101.956 209.18 100.636 208.58C99.3159 207.98 98.3159 207 97.6359 205.64C96.9959 204.28 96.6759 202.5 96.6759 200.3C96.6759 197.98 96.9359 196.14 97.4559 194.78C98.0159 193.38 98.9959 192.38 100.396 191.78C101.796 191.18 103.776 190.88 106.336 190.88C106.696 190.88 107.196 190.9 107.836 190.94C108.516 190.94 109.276 190.96 110.116 191C110.956 191 111.796 191.02 112.636 191.06C113.476 191.06 114.236 191.08 114.916 191.12V189.98C114.916 188.82 114.816 187.92 114.616 187.28C114.456 186.64 114.116 186.18 113.596 185.9C113.116 185.58 112.376 185.4 111.376 185.36C110.376 185.28 109.056 185.24 107.416 185.24C106.496 185.24 105.476 185.26 104.356 185.3C103.276 185.34 102.196 185.4 101.116 185.48C100.076 185.52 99.1959 185.58 98.4759 185.66V178.88C100.116 178.6 101.956 178.38 103.996 178.22C106.076 178.02 108.256 177.92 110.536 177.92C113.096 177.92 115.216 178.08 116.896 178.4C118.616 178.72 119.996 179.22 121.036 179.9C122.076 180.54 122.836 181.36 123.316 182.36C123.836 183.36 124.176 184.54 124.336 185.9C124.496 187.26 124.576 188.8 124.576 190.52V209H115.336L115.096 205.4H114.616C113.856 206.6 112.976 207.5 111.976 208.1C110.976 208.7 109.916 209.08 108.796 209.24C107.676 209.4 106.576 209.48 105.496 209.48ZM110.056 202.64C110.776 202.64 111.396 202.6 111.916 202.52C112.476 202.4 112.936 202.22 113.296 201.98C113.696 201.7 114.016 201.36 114.256 200.96C114.456 200.52 114.616 199.98 114.736 199.34C114.856 198.7 114.916 197.94 114.916 197.06V195.92H109.336C108.336 195.92 107.576 196 107.056 196.16C106.536 196.28 106.176 196.6 105.976 197.12C105.816 197.6 105.736 198.36 105.736 199.4C105.736 200.28 105.836 200.96 106.036 201.44C106.236 201.92 106.636 202.24 107.236 202.4C107.876 202.56 108.816 202.64 110.056 202.64ZM131.68 217.82V213.98C132.88 213.98 133.76 213.86 134.32 213.62C134.92 213.42 135.32 213.02 135.52 212.42C135.76 211.86 135.88 211.04 135.88 209.96V209H132.16V200.3H142.42V206.78C142.42 208.98 142.3 210.8 142.06 212.24C141.82 213.68 141.34 214.8 140.62 215.6C139.9 216.44 138.82 217.02 137.38 217.34C135.94 217.66 134.04 217.82 131.68 217.82ZM180.806 209.48C179.206 209.48 177.466 209.44 175.586 209.36C173.746 209.28 171.926 209.16 170.126 209C168.366 208.84 166.786 208.68 165.386 208.52V200.78C166.866 200.9 168.346 201.02 169.826 201.14C171.346 201.26 172.786 201.34 174.146 201.38C175.506 201.42 176.646 201.44 177.566 201.44C179.486 201.44 180.946 201.38 181.946 201.26C182.946 201.1 183.686 200.88 184.166 200.6C184.486 200.32 184.706 200.02 184.826 199.7C184.986 199.38 185.086 199 185.126 198.56C185.166 198.12 185.186 197.62 185.186 197.06C185.186 196.22 185.126 195.56 185.006 195.08C184.926 194.56 184.726 194.16 184.406 193.88C184.126 193.6 183.686 193.4 183.086 193.28C182.486 193.12 181.706 192.98 180.746 192.86L172.286 191.78C170.646 191.58 169.306 191.18 168.266 190.58C167.226 189.94 166.406 189.1 165.806 188.06C165.206 187.02 164.786 185.8 164.546 184.4C164.306 182.96 164.186 181.36 164.186 179.6C164.186 176.88 164.586 174.72 165.386 173.12C166.186 171.48 167.286 170.24 168.686 169.4C170.126 168.52 171.786 167.94 173.666 167.66C175.586 167.38 177.666 167.24 179.906 167.24C181.506 167.24 183.166 167.3 184.886 167.42C186.606 167.5 188.226 167.64 189.746 167.84C191.266 168 192.526 168.2 193.526 168.44V176C192.526 175.84 191.346 175.72 189.986 175.64C188.666 175.52 187.286 175.44 185.846 175.4C184.406 175.32 183.046 175.28 181.766 175.28C180.206 175.28 178.966 175.34 178.046 175.46C177.126 175.54 176.406 175.72 175.886 176C175.326 176.32 174.966 176.74 174.806 177.26C174.686 177.78 174.626 178.44 174.626 179.24C174.626 180.24 174.706 181.02 174.866 181.58C175.026 182.1 175.386 182.46 175.946 182.66C176.506 182.86 177.366 183.04 178.526 183.2L186.746 184.16C187.866 184.28 188.886 184.48 189.806 184.76C190.766 185.04 191.626 185.48 192.386 186.08C193.186 186.68 193.846 187.54 194.366 188.66C194.646 189.18 194.866 189.82 195.026 190.58C195.186 191.3 195.326 192.14 195.446 193.1C195.566 194.06 195.626 195.14 195.626 196.34C195.626 198.7 195.386 200.7 194.906 202.34C194.426 203.94 193.746 205.22 192.866 206.18C191.986 207.1 190.926 207.82 189.686 208.34C188.446 208.82 187.066 209.12 185.546 209.24C184.066 209.4 182.486 209.48 180.806 209.48ZM215.558 209.48C212.838 209.48 210.578 209.32 208.778 209C206.978 208.68 205.558 208.16 204.518 207.44C203.478 206.72 202.718 205.76 202.238 204.56C201.758 203.36 201.438 201.86 201.278 200.06C201.158 198.26 201.098 196.12 201.098 193.64C201.098 191.16 201.158 189.04 201.278 187.28C201.438 185.48 201.758 183.98 202.238 182.78C202.718 181.58 203.478 180.62 204.518 179.9C205.558 179.18 206.978 178.68 208.778 178.4C210.578 178.08 212.838 177.92 215.558 177.92C218.318 177.92 220.598 178.08 222.398 178.4C224.198 178.68 225.618 179.18 226.658 179.9C227.698 180.62 228.458 181.58 228.938 182.78C229.418 183.98 229.718 185.48 229.838 187.28C229.998 189.04 230.078 191.16 230.078 193.64C230.078 196.12 229.998 198.26 229.838 200.06C229.718 201.86 229.418 203.36 228.938 204.56C228.458 205.76 227.698 206.72 226.658 207.44C225.618 208.16 224.198 208.68 222.398 209C220.598 209.32 218.318 209.48 215.558 209.48ZM215.558 202.16C216.758 202.16 217.698 202.08 218.378 201.92C219.058 201.76 219.538 201.4 219.818 200.84C220.098 200.28 220.258 199.42 220.298 198.26C220.378 197.1 220.418 195.56 220.418 193.64C220.418 191.72 220.378 190.2 220.298 189.08C220.258 187.96 220.098 187.12 219.818 186.56C219.538 186 219.058 185.64 218.378 185.48C217.698 185.32 216.758 185.24 215.558 185.24C214.358 185.24 213.418 185.32 212.738 185.48C212.098 185.64 211.638 186 211.358 186.56C211.078 187.12 210.898 187.96 210.818 189.08C210.778 190.2 210.758 191.72 210.758 193.64C210.758 195.56 210.778 197.1 210.818 198.26C210.898 199.42 211.078 200.28 211.358 200.84C211.638 201.4 212.098 201.76 212.738 201.92C213.418 202.08 214.358 202.16 215.558 202.16ZM249.413 221.36C248.173 221.36 246.893 221.32 245.573 221.24C244.253 221.2 242.993 221.12 241.793 221C240.633 220.88 239.613 220.76 238.733 220.64V213.98C239.973 213.98 241.073 213.98 242.033 213.98C243.033 214.02 243.933 214.04 244.733 214.04C245.573 214.04 246.353 214.04 247.073 214.04C248.953 214.04 250.433 213.96 251.513 213.8C252.593 213.64 253.373 213.34 253.853 212.9C254.333 212.46 254.633 211.78 254.753 210.86C254.873 209.98 254.933 208.82 254.933 207.38V204.92H254.453C253.893 205.88 253.193 206.66 252.353 207.26C251.513 207.82 250.533 208.24 249.413 208.52C248.333 208.76 247.133 208.88 245.813 208.88C243.773 208.88 242.133 208.64 240.893 208.16C239.653 207.64 238.713 206.88 238.073 205.88C237.433 204.84 237.013 203.6 236.813 202.16C236.613 200.68 236.513 198.96 236.513 197V178.4H246.113V194.06C246.113 195.7 246.153 197 246.233 197.96C246.353 198.88 246.553 199.56 246.833 200C247.113 200.44 247.533 200.72 248.093 200.84C248.653 200.96 249.413 201.02 250.373 201.02C251.413 201.02 252.233 200.92 252.833 200.72C253.473 200.48 253.933 200.1 254.213 199.58C254.493 199.02 254.673 198.28 254.753 197.36C254.873 196.4 254.933 195.22 254.933 193.82V178.4H264.593V205.58C264.593 208.26 264.453 210.58 264.173 212.54C263.893 214.54 263.273 216.18 262.313 217.46C261.353 218.78 259.833 219.76 257.753 220.4C255.713 221.04 252.933 221.36 249.413 221.36ZM103.681 279V248.4H112.801L113.041 252.12H113.581C114.181 251.08 114.921 250.26 115.801 249.66C116.681 249.02 117.681 248.58 118.801 248.34C119.921 248.06 121.141 247.92 122.461 247.92C124.501 247.92 126.121 248.18 127.321 248.7C128.561 249.22 129.501 249.98 130.141 250.98C130.781 251.98 131.201 253.22 131.401 254.7C131.641 256.18 131.761 257.9 131.761 259.86V279H122.101V262.8C122.101 261.16 122.061 259.88 121.981 258.96C121.901 258 121.721 257.3 121.441 256.86C121.161 256.42 120.721 256.16 120.121 256.08C119.561 255.96 118.801 255.9 117.841 255.9C116.841 255.9 116.021 256.02 115.381 256.26C114.781 256.46 114.321 256.82 114.001 257.34C113.721 257.86 113.521 258.6 113.401 259.56C113.321 260.48 113.281 261.64 113.281 263.04V279H103.681ZM146.57 279.48C144.65 279.48 143.03 279.18 141.71 278.58C140.39 277.98 139.39 277 138.71 275.64C138.07 274.28 137.75 272.5 137.75 270.3C137.75 267.98 138.01 266.14 138.53 264.78C139.09 263.38 140.07 262.38 141.47 261.78C142.87 261.18 144.85 260.88 147.41 260.88C147.77 260.88 148.27 260.9 148.91 260.94C149.59 260.94 150.35 260.96 151.19 261C152.03 261 152.87 261.02 153.71 261.06C154.55 261.06 155.31 261.08 155.99 261.12V259.98C155.99 258.82 155.89 257.92 155.69 257.28C155.53 256.64 155.19 256.18 154.67 255.9C154.19 255.58 153.45 255.4 152.45 255.36C151.45 255.28 150.13 255.24 148.49 255.24C147.57 255.24 146.55 255.26 145.43 255.3C144.35 255.34 143.27 255.4 142.19 255.48C141.15 255.52 140.27 255.58 139.55 255.66V248.88C141.19 248.6 143.03 248.38 145.07 248.22C147.15 248.02 149.33 247.92 151.61 247.92C154.17 247.92 156.29 248.08 157.97 248.4C159.69 248.72 161.07 249.22 162.11 249.9C163.15 250.54 163.91 251.36 164.39 252.36C164.91 253.36 165.25 254.54 165.41 255.9C165.57 257.26 165.65 258.8 165.65 260.52V279H156.41L156.17 275.4H155.69C154.93 276.6 154.05 277.5 153.05 278.1C152.05 278.7 150.99 279.08 149.87 279.24C148.75 279.4 147.65 279.48 146.57 279.48ZM151.13 272.64C151.85 272.64 152.47 272.6 152.99 272.52C153.55 272.4 154.01 272.22 154.37 271.98C154.77 271.7 155.09 271.36 155.33 270.96C155.53 270.52 155.69 269.98 155.81 269.34C155.93 268.7 155.99 267.94 155.99 267.06V265.92H150.41C149.41 265.92 148.65 266 148.13 266.16C147.61 266.28 147.25 266.6 147.05 267.12C146.89 267.6 146.81 268.36 146.81 269.4C146.81 270.28 146.91 270.96 147.11 271.44C147.31 271.92 147.71 272.24 148.31 272.4C148.95 272.56 149.89 272.64 151.13 272.64ZM173.115 279V248.4H182.235L182.475 253.62H183.015C183.575 252.14 184.275 250.98 185.115 250.14C185.995 249.3 187.055 248.72 188.295 248.4C189.535 248.08 190.975 247.92 192.615 247.92V256.74C190.095 256.74 188.115 257.06 186.675 257.7C185.235 258.34 184.215 259.44 183.615 261C183.015 262.52 182.715 264.66 182.715 267.42V279H173.115ZM206.431 279.48C204.671 279.48 203.151 279.24 201.871 278.76C200.591 278.28 199.551 277.46 198.751 276.3C197.951 275.1 197.351 273.48 196.951 271.44C196.591 269.4 196.411 266.84 196.411 263.76C196.411 260.72 196.591 258.18 196.951 256.14C197.311 254.06 197.891 252.44 198.691 251.28C199.491 250.08 200.511 249.22 201.751 248.7C203.031 248.18 204.571 247.92 206.371 247.92C207.571 247.92 208.691 248.02 209.731 248.22C210.811 248.42 211.791 248.78 212.671 249.3C213.551 249.82 214.311 250.6 214.951 251.64H215.431V234.42H225.091V279H215.911L215.671 275.34H215.191C214.591 276.5 213.811 277.38 212.851 277.98C211.931 278.54 210.911 278.92 209.791 279.12C208.711 279.36 207.591 279.48 206.431 279.48ZM210.751 271.56C211.991 271.56 212.911 271.42 213.511 271.14C214.151 270.82 214.611 270.26 214.891 269.46C215.131 268.74 215.271 267.92 215.311 267C215.391 266.04 215.431 264.94 215.431 263.7C215.431 262.46 215.391 261.38 215.311 260.46C215.271 259.54 215.131 258.76 214.891 258.12C214.651 257.24 214.211 256.64 213.571 256.32C212.931 256 211.991 255.84 210.751 255.84C209.671 255.84 208.811 255.92 208.171 256.08C207.531 256.24 207.051 256.58 206.731 257.1C206.451 257.58 206.271 258.34 206.191 259.38C206.111 260.42 206.071 261.86 206.071 263.7C206.071 265.54 206.111 267 206.191 268.08C206.271 269.12 206.451 269.9 206.731 270.42C207.051 270.9 207.531 271.22 208.171 271.38C208.811 271.5 209.671 271.56 210.751 271.56ZM245.969 279.48C243.249 279.48 240.989 279.32 239.189 279C237.389 278.68 235.969 278.16 234.929 277.44C233.889 276.72 233.129 275.76 232.649 274.56C232.169 273.36 231.849 271.86 231.689 270.06C231.569 268.26 231.509 266.12 231.509 263.64C231.509 261.16 231.569 259.04 231.689 257.28C231.849 255.48 232.169 253.98 232.649 252.78C233.129 251.58 233.889 250.62 234.929 249.9C235.969 249.18 237.389 248.68 239.189 248.4C240.989 248.08 243.249 247.92 245.969 247.92C248.729 247.92 251.009 248.08 252.809 248.4C254.609 248.68 256.029 249.18 257.069 249.9C258.109 250.62 258.869 251.58 259.349 252.78C259.829 253.98 260.129 255.48 260.249 257.28C260.409 259.04 260.489 261.16 260.489 263.64C260.489 266.12 260.409 268.26 260.249 270.06C260.129 271.86 259.829 273.36 259.349 274.56C258.869 275.76 258.109 276.72 257.069 277.44C256.029 278.16 254.609 278.68 252.809 279C251.009 279.32 248.729 279.48 245.969 279.48ZM245.969 272.16C247.169 272.16 248.109 272.08 248.789 271.92C249.469 271.76 249.949 271.4 250.229 270.84C250.509 270.28 250.669 269.42 250.709 268.26C250.789 267.1 250.829 265.56 250.829 263.64C250.829 261.72 250.789 260.2 250.709 259.08C250.669 257.96 250.509 257.12 250.229 256.56C249.949 256 249.469 255.64 248.789 255.48C248.109 255.32 247.169 255.24 245.969 255.24C244.769 255.24 243.829 255.32 243.149 255.48C242.509 255.64 242.049 256 241.769 256.56C241.489 257.12 241.309 257.96 241.229 259.08C241.189 260.2 241.169 261.72 241.169 263.64C241.169 265.56 241.189 267.1 241.229 268.26C241.309 269.42 241.489 270.28 241.769 270.84C242.049 271.4 242.509 271.76 243.149 271.92C243.829 272.08 244.769 272.16 245.969 272.16ZM278.859 279L291.939 237.72H306.159L319.299 279H308.739L306.279 270.9H291.579L289.179 279H278.859ZM293.799 263.04H303.999L299.079 246.72H298.659L293.799 263.04ZM323.525 279V248.4H332.645L332.885 252.12H333.425C334.025 251.08 334.765 250.26 335.645 249.66C336.525 249.02 337.525 248.58 338.645 248.34C339.765 248.06 340.985 247.92 342.305 247.92C344.345 247.92 345.965 248.18 347.165 248.7C348.405 249.22 349.345 249.98 349.985 250.98C350.625 251.98 351.045 253.22 351.245 254.7C351.485 256.18 351.605 257.9 351.605 259.86V279H341.945V262.8C341.945 261.16 341.905 259.88 341.825 258.96C341.745 258 341.565 257.3 341.285 256.86C341.005 256.42 340.565 256.16 339.965 256.08C339.405 255.96 338.645 255.9 337.685 255.9C336.685 255.9 335.865 256.02 335.225 256.26C334.625 256.46 334.165 256.82 333.845 257.34C333.565 257.86 333.365 258.6 333.245 259.56C333.165 260.48 333.125 261.64 333.125 263.04V279H323.525ZM362.034 279V255.72H356.454V248.4H362.034V239.52H371.754V248.4H378.414V255.72H371.754V279H362.034ZM396.555 279.48C393.835 279.48 391.575 279.32 389.775 279C387.975 278.68 386.555 278.16 385.515 277.44C384.475 276.72 383.715 275.76 383.235 274.56C382.755 273.36 382.435 271.86 382.275 270.06C382.155 268.26 382.095 266.12 382.095 263.64C382.095 261.16 382.155 259.04 382.275 257.28C382.435 255.48 382.755 253.98 383.235 252.78C383.715 251.58 384.475 250.62 385.515 249.9C386.555 249.18 387.975 248.68 389.775 248.4C391.575 248.08 393.835 247.92 396.555 247.92C399.315 247.92 401.595 248.08 403.395 248.4C405.195 248.68 406.615 249.18 407.655 249.9C408.695 250.62 409.455 251.58 409.935 252.78C410.415 253.98 410.715 255.48 410.835 257.28C410.995 259.04 411.075 261.16 411.075 263.64C411.075 266.12 410.995 268.26 410.835 270.06C410.715 271.86 410.415 273.36 409.935 274.56C409.455 275.76 408.695 276.72 407.655 277.44C406.615 278.16 405.195 278.68 403.395 279C401.595 279.32 399.315 279.48 396.555 279.48ZM396.555 272.16C397.755 272.16 398.695 272.08 399.375 271.92C400.055 271.76 400.535 271.4 400.815 270.84C401.095 270.28 401.255 269.42 401.295 268.26C401.375 267.1 401.415 265.56 401.415 263.64C401.415 261.72 401.375 260.2 401.295 259.08C401.255 257.96 401.095 257.12 400.815 256.56C400.535 256 400.055 255.64 399.375 255.48C398.695 255.32 397.755 255.24 396.555 255.24C395.355 255.24 394.415 255.32 393.735 255.48C393.095 255.64 392.635 256 392.355 256.56C392.075 257.12 391.895 257.96 391.815 259.08C391.775 260.2 391.755 261.72 391.755 263.64C391.755 265.56 391.775 267.1 391.815 268.26C391.895 269.42 392.075 270.28 392.355 270.84C392.635 271.4 393.095 271.76 393.735 271.92C394.415 272.08 395.355 272.16 396.555 272.16ZM417.509 279V248.4H426.629L426.869 252.12H427.409C428.009 251.08 428.749 250.26 429.629 249.66C430.509 249.02 431.509 248.58 432.629 248.34C433.749 248.06 434.969 247.92 436.289 247.92C438.329 247.92 439.949 248.18 441.149 248.7C442.389 249.22 443.329 249.98 443.969 250.98C444.609 251.98 445.029 253.22 445.229 254.7C445.469 256.18 445.589 257.9 445.589 259.86V279H435.929V262.8C435.929 261.16 435.889 259.88 435.809 258.96C435.729 258 435.549 257.3 435.269 256.86C434.989 256.42 434.549 256.16 433.949 256.08C433.389 255.96 432.629 255.9 431.669 255.9C430.669 255.9 429.849 256.02 429.209 256.26C428.609 256.46 428.149 256.82 427.829 257.34C427.549 257.86 427.349 258.6 427.229 259.56C427.149 260.48 427.109 261.64 427.109 263.04V279H417.509ZM452.838 242.16V234.42H462.738V242.16H452.838ZM452.958 279V248.4H462.678V279H452.958ZM483.566 279.48C480.846 279.48 478.586 279.32 476.786 279C474.986 278.68 473.566 278.16 472.526 277.44C471.486 276.72 470.726 275.76 470.246 274.56C469.766 273.36 469.446 271.86 469.286 270.06C469.166 268.26 469.106 266.12 469.106 263.64C469.106 261.16 469.166 259.04 469.286 257.28C469.446 255.48 469.766 253.98 470.246 252.78C470.726 251.58 471.486 250.62 472.526 249.9C473.566 249.18 474.986 248.68 476.786 248.4C478.586 248.08 480.846 247.92 483.566 247.92C486.326 247.92 488.606 248.08 490.406 248.4C492.206 248.68 493.626 249.18 494.666 249.9C495.706 250.62 496.466 251.58 496.946 252.78C497.426 253.98 497.726 255.48 497.846 257.28C498.006 259.04 498.086 261.16 498.086 263.64C498.086 266.12 498.006 268.26 497.846 270.06C497.726 271.86 497.426 273.36 496.946 274.56C496.466 275.76 495.706 276.72 494.666 277.44C493.626 278.16 492.206 278.68 490.406 279C488.606 279.32 486.326 279.48 483.566 279.48ZM483.566 272.16C484.766 272.16 485.706 272.08 486.386 271.92C487.066 271.76 487.546 271.4 487.826 270.84C488.106 270.28 488.266 269.42 488.306 268.26C488.386 267.1 488.426 265.56 488.426 263.64C488.426 261.72 488.386 260.2 488.306 259.08C488.266 257.96 488.106 257.12 487.826 256.56C487.546 256 487.066 255.64 486.386 255.48C485.706 255.32 484.766 255.24 483.566 255.24C482.366 255.24 481.426 255.32 480.746 255.48C480.106 255.64 479.646 256 479.366 256.56C479.086 257.12 478.906 257.96 478.826 259.08C478.786 260.2 478.766 261.72 478.766 263.64C478.766 265.56 478.786 267.1 478.826 268.26C478.906 269.42 479.086 270.28 479.366 270.84C479.646 271.4 480.106 271.76 480.746 271.92C481.426 272.08 482.366 272.16 483.566 272.16ZM4.26 349V307.72H15L28.44 329.86H28.74V307.72H38.76V349H28.98L14.58 324.82H14.28V349H4.26ZM60.1678 349.48C57.4478 349.48 55.1878 349.32 53.3878 349C51.5878 348.68 50.1678 348.16 49.1278 347.44C48.0878 346.72 47.3278 345.76 46.8478 344.56C46.3678 343.36 46.0478 341.86 45.8878 340.06C45.7678 338.26 45.7078 336.12 45.7078 333.64C45.7078 331.16 45.7678 329.04 45.8878 327.28C46.0478 325.48 46.3678 323.98 46.8478 322.78C47.3278 321.58 48.0878 320.62 49.1278 319.9C50.1678 319.18 51.5878 318.68 53.3878 318.4C55.1878 318.08 57.4478 317.92 60.1678 317.92C62.9278 317.92 65.2078 318.08 67.0078 318.4C68.8078 318.68 70.2278 319.18 71.2678 319.9C72.3078 320.62 73.0678 321.58 73.5478 322.78C74.0278 323.98 74.3278 325.48 74.4478 327.28C74.6078 329.04 74.6878 331.16 74.6878 333.64C74.6878 336.12 74.6078 338.26 74.4478 340.06C74.3278 341.86 74.0278 343.36 73.5478 344.56C73.0678 345.76 72.3078 346.72 71.2678 347.44C70.2278 348.16 68.8078 348.68 67.0078 349C65.2078 349.32 62.9278 349.48 60.1678 349.48ZM60.1678 342.16C61.3678 342.16 62.3078 342.08 62.9878 341.92C63.6678 341.76 64.1478 341.4 64.4278 340.84C64.7078 340.28 64.8678 339.42 64.9078 338.26C64.9878 337.1 65.0278 335.56 65.0278 333.64C65.0278 331.72 64.9878 330.2 64.9078 329.08C64.8678 327.96 64.7078 327.12 64.4278 326.56C64.1478 326 63.6678 325.64 62.9878 325.48C62.3078 325.32 61.3678 325.24 60.1678 325.24C58.9678 325.24 58.0278 325.32 57.3478 325.48C56.7078 325.64 56.2478 326 55.9678 326.56C55.6878 327.12 55.5078 327.96 55.4278 329.08C55.3878 330.2 55.3678 331.72 55.3678 333.64C55.3678 335.56 55.3878 337.1 55.4278 338.26C55.5078 339.42 55.6878 340.28 55.9678 340.84C56.2478 341.4 56.7078 341.76 57.3478 341.92C58.0278 342.08 58.9678 342.16 60.1678 342.16ZM81.1223 349V304.42H90.8423V349H81.1223ZM105.73 349.48C103.81 349.48 102.19 349.18 100.87 348.58C99.5503 347.98 98.5503 347 97.8703 345.64C97.2303 344.28 96.9103 342.5 96.9103 340.3C96.9103 337.98 97.1703 336.14 97.6903 334.78C98.2503 333.38 99.2303 332.38 100.63 331.78C102.03 331.18 104.01 330.88 106.57 330.88C106.93 330.88 107.43 330.9 108.07 330.94C108.75 330.94 109.51 330.96 110.35 331C111.19 331 112.03 331.02 112.87 331.06C113.71 331.06 114.47 331.08 115.15 331.12V329.98C115.15 328.82 115.05 327.92 114.85 327.28C114.69 326.64 114.35 326.18 113.83 325.9C113.35 325.58 112.61 325.4 111.61 325.36C110.61 325.28 109.29 325.24 107.65 325.24C106.73 325.24 105.71 325.26 104.59 325.3C103.51 325.34 102.43 325.4 101.35 325.48C100.31 325.52 99.4303 325.58 98.7103 325.66V318.88C100.35 318.6 102.19 318.38 104.23 318.22C106.31 318.02 108.49 317.92 110.77 317.92C113.33 317.92 115.45 318.08 117.13 318.4C118.85 318.72 120.23 319.22 121.27 319.9C122.31 320.54 123.07 321.36 123.55 322.36C124.07 323.36 124.41 324.54 124.57 325.9C124.73 327.26 124.81 328.8 124.81 330.52V349H115.57L115.33 345.4H114.85C114.09 346.6 113.21 347.5 112.21 348.1C111.21 348.7 110.15 349.08 109.03 349.24C107.91 349.4 106.81 349.48 105.73 349.48ZM110.29 342.64C111.01 342.64 111.63 342.6 112.15 342.52C112.71 342.4 113.17 342.22 113.53 341.98C113.93 341.7 114.25 341.36 114.49 340.96C114.69 340.52 114.85 339.98 114.97 339.34C115.09 338.7 115.15 337.94 115.15 337.06V335.92H109.57C108.57 335.92 107.81 336 107.29 336.16C106.77 336.28 106.41 336.6 106.21 337.12C106.05 337.6 105.97 338.36 105.97 339.4C105.97 340.28 106.07 340.96 106.27 341.44C106.47 341.92 106.87 342.24 107.47 342.4C108.11 342.56 109.05 342.64 110.29 342.64ZM144.155 349.48C142.875 349.48 141.475 349.44 139.955 349.36C138.475 349.28 137.015 349.18 135.575 349.06C134.175 348.94 132.915 348.8 131.795 348.64V341.86C132.435 341.9 133.155 341.96 133.955 342.04C134.795 342.12 135.655 342.18 136.535 342.22C137.415 342.26 138.255 342.3 139.055 342.34C139.895 342.34 140.655 342.34 141.335 342.34C143.215 342.34 144.555 342.28 145.355 342.16C146.195 342.04 146.715 341.8 146.915 341.44C147.155 341.04 147.275 340.52 147.275 339.88C147.275 339.24 147.195 338.78 147.035 338.5C146.915 338.22 146.635 338.02 146.195 337.9C145.795 337.78 145.095 337.66 144.095 337.54L136.955 336.64C135.235 336.4 133.935 335.9 133.055 335.14C132.175 334.34 131.575 333.28 131.255 331.96C130.975 330.6 130.835 329.02 130.835 327.22C130.835 325.1 131.155 323.44 131.795 322.24C132.435 321 133.315 320.08 134.435 319.48C135.595 318.84 136.955 318.42 138.515 318.22C140.115 318.02 141.815 317.92 143.615 317.92C144.895 317.92 146.215 317.96 147.575 318.04C148.935 318.12 150.235 318.24 151.475 318.4C152.715 318.52 153.735 318.66 154.535 318.82V325.54C153.535 325.46 152.475 325.38 151.355 325.3C150.275 325.22 149.235 325.16 148.235 325.12C147.235 325.08 146.395 325.06 145.715 325.06C144.115 325.06 142.875 325.1 141.995 325.18C141.155 325.26 140.575 325.46 140.255 325.78C139.975 326.1 139.835 326.62 139.835 327.34C139.835 327.9 139.875 328.34 139.955 328.66C140.075 328.94 140.335 329.14 140.735 329.26C141.135 329.38 141.755 329.5 142.595 329.62L149.795 330.52C151.155 330.68 152.315 331 153.275 331.48C154.235 331.96 154.955 332.82 155.435 334.06C155.955 335.3 156.215 337.16 156.215 339.64C156.215 341.88 155.915 343.66 155.315 344.98C154.755 346.26 153.935 347.24 152.855 347.92C151.775 348.56 150.495 348.98 149.015 349.18C147.575 349.38 145.955 349.48 144.155 349.48ZM174.575 349.48C172.015 349.48 169.915 349.26 168.275 348.82C166.635 348.34 165.335 347.68 164.375 346.84C163.415 345.96 162.715 344.88 162.275 343.6C161.835 342.32 161.555 340.86 161.435 339.22C161.315 337.54 161.255 335.7 161.255 333.7C161.255 331.74 161.315 329.94 161.435 328.3C161.555 326.66 161.855 325.2 162.335 323.92C162.815 322.6 163.515 321.5 164.435 320.62C165.395 319.74 166.675 319.08 168.275 318.64C169.915 318.16 171.995 317.92 174.515 317.92C176.115 317.92 177.715 318 179.315 318.16C180.955 318.32 182.415 318.56 183.695 318.88V325.66C182.895 325.54 181.855 325.44 180.575 325.36C179.335 325.28 178.175 325.24 177.095 325.24C175.695 325.24 174.595 325.36 173.795 325.6C172.995 325.8 172.395 326.2 171.995 326.8C171.595 327.36 171.315 328.2 171.155 329.32C171.035 330.44 170.975 331.9 170.975 333.7C170.975 335.5 171.035 336.98 171.155 338.14C171.315 339.26 171.595 340.12 171.995 340.72C172.395 341.28 173.015 341.66 173.855 341.86C174.695 342.06 175.795 342.16 177.155 342.16C178.115 342.16 179.195 342.12 180.395 342.04C181.635 341.96 182.815 341.86 183.935 341.74V348.52C182.615 348.8 181.115 349.02 179.435 349.18C177.755 349.38 176.135 349.48 174.575 349.48ZM203.488 349.48C200.768 349.48 198.508 349.32 196.708 349C194.908 348.68 193.488 348.16 192.448 347.44C191.408 346.72 190.648 345.76 190.168 344.56C189.688 343.36 189.368 341.86 189.208 340.06C189.088 338.26 189.028 336.12 189.028 333.64C189.028 331.16 189.088 329.04 189.208 327.28C189.368 325.48 189.688 323.98 190.168 322.78C190.648 321.58 191.408 320.62 192.448 319.9C193.488 319.18 194.908 318.68 196.708 318.4C198.508 318.08 200.768 317.92 203.488 317.92C206.248 317.92 208.528 318.08 210.328 318.4C212.128 318.68 213.548 319.18 214.588 319.9C215.628 320.62 216.388 321.58 216.868 322.78C217.348 323.98 217.648 325.48 217.768 327.28C217.928 329.04 218.008 331.16 218.008 333.64C218.008 336.12 217.928 338.26 217.768 340.06C217.648 341.86 217.348 343.36 216.868 344.56C216.388 345.76 215.628 346.72 214.588 347.44C213.548 348.16 212.128 348.68 210.328 349C208.528 349.32 206.248 349.48 203.488 349.48ZM203.488 342.16C204.688 342.16 205.628 342.08 206.308 341.92C206.988 341.76 207.468 341.4 207.748 340.84C208.028 340.28 208.188 339.42 208.228 338.26C208.308 337.1 208.348 335.56 208.348 333.64C208.348 331.72 208.308 330.2 208.228 329.08C208.188 327.96 208.028 327.12 207.748 326.56C207.468 326 206.988 325.64 206.308 325.48C205.628 325.32 204.688 325.24 203.488 325.24C202.288 325.24 201.348 325.32 200.668 325.48C200.028 325.64 199.568 326 199.288 326.56C199.008 327.12 198.828 327.96 198.748 329.08C198.708 330.2 198.688 331.72 198.688 333.64C198.688 335.56 198.708 337.1 198.748 338.26C198.828 339.42 199.008 340.28 199.288 340.84C199.568 341.4 200.028 341.76 200.668 341.92C201.348 342.08 202.288 342.16 203.488 342.16ZM240.158 349V307.72H250.598V340.6H266.678V349H240.158ZM286.066 349.48C283.186 349.48 280.806 349.3 278.926 348.94C277.046 348.58 275.546 348.02 274.426 347.26C273.346 346.46 272.526 345.44 271.966 344.2C271.446 342.96 271.106 341.48 270.946 339.76C270.826 338.04 270.766 336.04 270.766 333.76C270.766 331 270.886 328.62 271.126 326.62C271.406 324.62 272.006 322.98 272.926 321.7C273.846 320.42 275.266 319.48 277.186 318.88C279.146 318.24 281.786 317.92 285.106 317.92C287.786 317.92 289.966 318.12 291.646 318.52C293.326 318.88 294.646 319.46 295.606 320.26C296.606 321.02 297.306 322.02 297.706 323.26C298.146 324.5 298.426 326 298.546 327.76C298.666 329.48 298.726 331.48 298.726 333.76V336.1H280.306C280.306 337.46 280.366 338.56 280.486 339.4C280.606 340.2 280.926 340.8 281.446 341.2C281.966 341.6 282.766 341.88 283.846 342.04C284.926 342.16 286.426 342.22 288.346 342.22C289.106 342.22 290.006 342.2 291.046 342.16C292.086 342.12 293.166 342.06 294.286 341.98C295.446 341.9 296.526 341.82 297.526 341.74V348.46C296.646 348.66 295.566 348.84 294.286 349C293.046 349.16 291.706 349.28 290.266 349.36C288.826 349.44 287.426 349.48 286.066 349.48ZM289.666 332.08V331.12C289.666 329.68 289.586 328.54 289.426 327.7C289.306 326.86 289.066 326.24 288.706 325.84C288.386 325.4 287.926 325.12 287.326 325C286.726 324.88 285.966 324.82 285.046 324.82C284.006 324.82 283.166 324.9 282.526 325.06C281.926 325.18 281.466 325.46 281.146 325.9C280.826 326.34 280.606 326.98 280.486 327.82C280.366 328.66 280.306 329.76 280.306 331.12H290.686L289.666 332.08ZM318.085 361.36C316.845 361.36 315.565 361.32 314.245 361.24C312.925 361.2 311.665 361.12 310.465 361C309.305 360.88 308.285 360.76 307.405 360.64V353.98C308.645 353.98 309.745 353.98 310.705 353.98C311.705 354.02 312.605 354.04 313.405 354.04C314.245 354.04 315.025 354.04 315.745 354.04C317.625 354.04 319.105 353.96 320.185 353.8C321.265 353.64 322.045 353.34 322.525 352.9C323.005 352.46 323.305 351.78 323.425 350.86C323.545 349.98 323.605 348.82 323.605 347.38V344.92H323.125C322.565 345.88 321.865 346.66 321.025 347.26C320.185 347.82 319.205 348.24 318.085 348.52C317.005 348.76 315.805 348.88 314.485 348.88C312.445 348.88 310.805 348.64 309.565 348.16C308.325 347.64 307.385 346.88 306.745 345.88C306.105 344.84 305.685 343.6 305.485 342.16C305.285 340.68 305.185 338.96 305.185 337V318.4H314.785V334.06C314.785 335.7 314.825 337 314.905 337.96C315.025 338.88 315.225 339.56 315.505 340C315.785 340.44 316.205 340.72 316.765 340.84C317.325 340.96 318.085 341.02 319.045 341.02C320.085 341.02 320.905 340.92 321.505 340.72C322.145 340.48 322.605 340.1 322.885 339.58C323.165 339.02 323.345 338.28 323.425 337.36C323.545 336.4 323.605 335.22 323.605 333.82V318.4H333.265V345.58C333.265 348.26 333.125 350.58 332.845 352.54C332.565 354.54 331.945 356.18 330.985 357.46C330.025 358.78 328.505 359.76 326.425 360.4C324.385 361.04 321.605 361.36 318.085 361.36ZM346.934 349L337.694 318.4H347.534L353.234 340.42H353.834L359.354 318.4H369.074L359.894 349H346.934ZM380.476 349.48C378.556 349.48 376.936 349.18 375.616 348.58C374.296 347.98 373.296 347 372.616 345.64C371.976 344.28 371.656 342.5 371.656 340.3C371.656 337.98 371.916 336.14 372.436 334.78C372.996 333.38 373.976 332.38 375.376 331.78C376.776 331.18 378.756 330.88 381.316 330.88C381.676 330.88 382.176 330.9 382.816 330.94C383.496 330.94 384.256 330.96 385.096 331C385.936 331 386.776 331.02 387.616 331.06C388.456 331.06 389.216 331.08 389.896 331.12V329.98C389.896 328.82 389.796 327.92 389.596 327.28C389.436 326.64 389.096 326.18 388.576 325.9C388.096 325.58 387.356 325.4 386.356 325.36C385.356 325.28 384.036 325.24 382.396 325.24C381.476 325.24 380.456 325.26 379.336 325.3C378.256 325.34 377.176 325.4 376.096 325.48C375.056 325.52 374.176 325.58 373.456 325.66V318.88C375.096 318.6 376.936 318.38 378.976 318.22C381.056 318.02 383.236 317.92 385.516 317.92C388.076 317.92 390.196 318.08 391.876 318.4C393.596 318.72 394.976 319.22 396.016 319.9C397.056 320.54 397.816 321.36 398.296 322.36C398.816 323.36 399.156 324.54 399.316 325.9C399.476 327.26 399.556 328.8 399.556 330.52V349H390.316L390.076 345.4H389.596C388.836 346.6 387.956 347.5 386.956 348.1C385.956 348.7 384.896 349.08 383.776 349.24C382.656 349.4 381.556 349.48 380.476 349.48ZM385.036 342.64C385.756 342.64 386.376 342.6 386.896 342.52C387.456 342.4 387.916 342.22 388.276 341.98C388.676 341.7 388.996 341.36 389.236 340.96C389.436 340.52 389.596 339.98 389.716 339.34C389.836 338.7 389.896 337.94 389.896 337.06V335.92H384.316C383.316 335.92 382.556 336 382.036 336.16C381.516 336.28 381.156 336.6 380.956 337.12C380.796 337.6 380.716 338.36 380.716 339.4C380.716 340.28 380.816 340.96 381.016 341.44C381.216 341.92 381.616 342.24 382.216 342.4C382.856 342.56 383.796 342.64 385.036 342.64Z" fill="black"/>
<path d="M4.26 279V237.72H14.7V270.6H30.78V279H4.26ZM50.168 279.48C47.288 279.48 44.908 279.3 43.028 278.94C41.148 278.58 39.648 278.02 38.528 277.26C37.448 276.46 36.628 275.44 36.068 274.2C35.548 272.96 35.208 271.48 35.048 269.76C34.928 268.04 34.868 266.04 34.868 263.76C34.868 261 34.988 258.62 35.228 256.62C35.508 254.62 36.108 252.98 37.028 251.7C37.948 250.42 39.368 249.48 41.288 248.88C43.248 248.24 45.888 247.92 49.208 247.92C51.888 247.92 54.068 248.12 55.748 248.52C57.428 248.88 58.748 249.46 59.708 250.26C60.708 251.02 61.408 252.02 61.808 253.26C62.248 254.5 62.528 256 62.648 257.76C62.768 259.48 62.828 261.48 62.828 263.76V266.1H44.408C44.408 267.46 44.468 268.56 44.588 269.4C44.708 270.2 45.028 270.8 45.548 271.2C46.068 271.6 46.868 271.88 47.948 272.04C49.028 272.16 50.528 272.22 52.448 272.22C53.208 272.22 54.108 272.2 55.148 272.16C56.188 272.12 57.268 272.06 58.388 271.98C59.548 271.9 60.628 271.82 61.628 271.74V278.46C60.748 278.66 59.668 278.84 58.388 279C57.148 279.16 55.808 279.28 54.368 279.36C52.928 279.44 51.528 279.48 50.168 279.48ZM53.768 262.08V261.12C53.768 259.68 53.688 258.54 53.528 257.7C53.408 256.86 53.168 256.24 52.808 255.84C52.488 255.4 52.028 255.12 51.428 255C50.828 254.88 50.068 254.82 49.148 254.82C48.108 254.82 47.268 254.9 46.628 255.06C46.028 255.18 45.568 255.46 45.248 255.9C44.928 256.34 44.708 256.98 44.588 257.82C44.468 258.66 44.408 259.76 44.408 261.12H54.788L53.768 262.08ZM82.7264 279.48C80.0064 279.48 77.7464 279.32 75.9464 279C74.1464 278.68 72.7264 278.16 71.6864 277.44C70.6464 276.72 69.8864 275.76 69.4064 274.56C68.9264 273.36 68.6064 271.86 68.4464 270.06C68.3264 268.26 68.2664 266.12 68.2664 263.64C68.2664 261.16 68.3264 259.04 68.4464 257.28C68.6064 255.48 68.9264 253.98 69.4064 252.78C69.8864 251.58 70.6464 250.62 71.6864 249.9C72.7264 249.18 74.1464 248.68 75.9464 248.4C77.7464 248.08 80.0064 247.92 82.7264 247.92C85.4864 247.92 87.7664 248.08 89.5664 248.4C91.3664 248.68 92.7864 249.18 93.8264 249.9C94.8664 250.62 95.6264 251.58 96.1064 252.78C96.5864 253.98 96.8864 255.48 97.0064 257.28C97.1664 259.04 97.2464 261.16 97.2464 263.64C97.2464 266.12 97.1664 268.26 97.0064 270.06C96.8864 271.86 96.5864 273.36 96.1064 274.56C95.6264 275.76 94.8664 276.72 93.8264 277.44C92.7864 278.16 91.3664 278.68 89.5664 279C87.7664 279.32 85.4864 279.48 82.7264 279.48ZM82.7264 272.16C83.9264 272.16 84.8664 272.08 85.5464 271.92C86.2264 271.76 86.7064 271.4 86.9864 270.84C87.2664 270.28 87.4264 269.42 87.4664 268.26C87.5464 267.1 87.5864 265.56 87.5864 263.64C87.5864 261.72 87.5464 260.2 87.4664 259.08C87.4264 257.96 87.2664 257.12 86.9864 256.56C86.7064 256 86.2264 255.64 85.5464 255.48C84.8664 255.32 83.9264 255.24 82.7264 255.24C81.5264 255.24 80.5864 255.32 79.9064 255.48C79.2664 255.64 78.8064 256 78.5264 256.56C78.2464 257.12 78.0664 257.96 77.9864 259.08C77.9464 260.2 77.9264 261.72 77.9264 263.64C77.9264 265.56 77.9464 267.1 77.9864 268.26C78.0664 269.42 78.2464 270.28 78.5264 270.84C78.8064 271.4 79.2664 271.76 79.9064 271.92C80.5864 272.08 81.5264 272.16 82.7264 272.16Z" fill="#0000FF"/>
<path d="M3.68 417V389.48H12.68C15 389.48 16.8933 389.6 18.36 389.84C19.8533 390.053 21.0267 390.453 21.88 391.04C22.7333 391.627 23.3467 392.44 23.72 393.48C24.12 394.52 24.3733 395.84 24.48 397.44C24.5867 399.04 24.64 400.973 24.64 403.24C24.64 405.507 24.5867 407.44 24.48 409.04C24.3733 410.64 24.12 411.96 23.72 413C23.3467 414.04 22.7333 414.853 21.88 415.44C21.0267 416.027 19.8533 416.44 18.36 416.68C16.8933 416.893 15 417 12.68 417H3.68ZM8.2 413.16H12.28C13.7733 413.16 15 413.133 15.96 413.08C16.9467 413 17.72 412.813 18.28 412.52C18.84 412.2 19.2533 411.693 19.52 411C19.7867 410.307 19.9467 409.333 20 408.08C20.08 406.8 20.12 405.187 20.12 403.24C20.12 401.293 20.08 399.693 20 398.44C19.9467 397.187 19.7733 396.213 19.48 395.52C19.2133 394.8 18.7867 394.293 18.2 394C17.64 393.68 16.88 393.493 15.92 393.44C14.96 393.36 13.7467 393.32 12.28 393.32H8.2V413.16ZM39.2619 417.32C37.5285 417.32 36.0885 417.213 34.9419 417C33.7952 416.76 32.8752 416.387 32.1819 415.88C31.4885 415.347 30.9685 414.68 30.6219 413.88C30.2752 413.053 30.0485 412.067 29.9419 410.92C29.8352 409.747 29.7819 408.387 29.7819 406.84C29.7819 405 29.8752 403.413 30.0619 402.08C30.2485 400.747 30.6352 399.653 31.2219 398.8C31.8085 397.92 32.7152 397.28 33.9419 396.88C35.1952 396.48 36.8619 396.28 38.9419 396.28C40.5685 396.28 41.9019 396.413 42.9419 396.68C43.9819 396.92 44.7952 397.307 45.3819 397.84C45.9952 398.373 46.4352 399.067 46.7019 399.92C46.9952 400.747 47.1819 401.747 47.2619 402.92C47.3419 404.067 47.3819 405.373 47.3819 406.84V408.2H34.0619C34.0619 409.4 34.1152 410.373 34.2219 411.12C34.3285 411.84 34.5685 412.4 34.9419 412.8C35.3419 413.173 35.9552 413.44 36.7819 413.6C37.6352 413.733 38.7819 413.8 40.2219 413.8C40.8352 413.8 41.5019 413.787 42.2219 413.76C42.9685 413.733 43.7285 413.68 44.5019 413.6C45.2752 413.52 45.9685 413.453 46.5819 413.4V416.72C45.9952 416.827 45.2885 416.92 44.4619 417C43.6352 417.107 42.7685 417.187 41.8619 417.24C40.9552 417.293 40.0885 417.32 39.2619 417.32ZM43.3019 405.92V405.16C43.3019 403.96 43.2219 403.013 43.0619 402.32C42.9285 401.6 42.6885 401.067 42.3419 400.72C42.0219 400.347 41.5685 400.107 40.9819 400C40.4219 399.867 39.7152 399.8 38.8619 399.8C37.7952 399.8 36.9419 399.88 36.3019 400.04C35.6885 400.173 35.2219 400.44 34.9019 400.84C34.5819 401.24 34.3552 401.8 34.2219 402.52C34.1152 403.213 34.0619 404.133 34.0619 405.28H44.0219L43.3019 405.92ZM60.0066 417.32C59.2066 417.32 58.3399 417.293 57.4066 417.24C56.4999 417.187 55.6066 417.12 54.7266 417.04C53.8466 416.96 53.0599 416.867 52.3666 416.76V413.4C52.8199 413.427 53.3266 413.467 53.8866 413.52C54.4732 413.573 55.0866 413.613 55.7266 413.64C56.3666 413.667 56.9932 413.693 57.6066 413.72C58.2199 413.747 58.8199 413.76 59.4066 413.76C60.6866 413.76 61.6066 413.68 62.1666 413.52C62.7532 413.36 63.1266 413.093 63.2866 412.72C63.4732 412.32 63.5666 411.813 63.5666 411.2C63.5666 410.507 63.4999 410 63.3666 409.68C63.2599 409.36 63.0466 409.147 62.7266 409.04C62.4066 408.933 61.9132 408.84 61.2466 408.76L56.2866 408.16C55.0066 408.027 54.0332 407.733 53.3666 407.28C52.7266 406.8 52.2866 406.16 52.0466 405.36C51.8332 404.533 51.7266 403.533 51.7266 402.36C51.7266 401 51.9132 399.92 52.2866 399.12C52.6866 398.293 53.2332 397.68 53.9266 397.28C54.6466 396.88 55.5132 396.613 56.5266 396.48C57.5399 396.347 58.6466 396.28 59.8466 396.28C60.5932 396.28 61.3666 396.307 62.1666 396.36C62.9932 396.413 63.7799 396.493 64.5266 396.6C65.2999 396.68 65.9666 396.773 66.5266 396.88V400.24C65.8866 400.16 65.1932 400.093 64.4466 400.04C63.6999 399.987 62.9532 399.947 62.2066 399.92C61.4866 399.867 60.7932 399.84 60.1266 399.84C59.1399 399.84 58.3266 399.893 57.6866 400C57.0466 400.08 56.5666 400.293 56.2466 400.64C55.9532 400.96 55.8066 401.52 55.8066 402.32C55.8066 402.933 55.8466 403.4 55.9266 403.72C56.0332 404.013 56.2332 404.227 56.5266 404.36C56.8466 404.467 57.3266 404.56 57.9666 404.64L63.3266 405.28C64.3399 405.387 65.1532 405.6 65.7666 405.92C66.4066 406.213 66.8732 406.76 67.1666 407.56C67.4866 408.333 67.6466 409.52 67.6466 411.12C67.6466 412.453 67.4732 413.533 67.1266 414.36C66.8066 415.16 66.3132 415.787 65.6466 416.24C64.9799 416.667 64.1666 416.947 63.2066 417.08C62.2732 417.24 61.2066 417.32 60.0066 417.32ZM78.0084 417.32C76.6218 417.32 75.4484 417.133 74.4884 416.76C73.5551 416.387 72.8484 415.773 72.3684 414.92C71.8884 414.04 71.6484 412.853 71.6484 411.36C71.6484 409.787 71.8351 408.547 72.2084 407.64C72.5818 406.707 73.2218 406.04 74.1284 405.64C75.0351 405.24 76.3151 405.04 77.9684 405.04C78.2351 405.04 78.6218 405.053 79.1284 405.08C79.6618 405.08 80.2618 405.093 80.9284 405.12C81.6218 405.12 82.3018 405.133 82.9684 405.16C83.6618 405.16 84.2884 405.173 84.8484 405.2V404.24C84.8484 403.2 84.7818 402.387 84.6484 401.8C84.5151 401.213 84.2351 400.787 83.8084 400.52C83.4084 400.227 82.8218 400.04 82.0484 399.96C81.2751 399.88 80.2751 399.84 79.0484 399.84C78.4618 399.84 77.7684 399.867 76.9684 399.92C76.1951 399.947 75.4351 399.987 74.6884 400.04C73.9418 400.093 73.3684 400.16 72.9684 400.24V396.88C74.0618 396.667 75.2618 396.52 76.5684 396.44C77.8751 396.333 79.1818 396.28 80.4884 396.28C82.0084 396.28 83.2751 396.373 84.2884 396.56C85.3284 396.747 86.1684 397.04 86.8084 397.44C87.4484 397.84 87.9284 398.36 88.2484 399C88.5684 399.64 88.7951 400.413 88.9284 401.32C89.0618 402.2 89.1284 403.213 89.1284 404.36V417H85.2084L85.0484 414.36H84.8084C84.3551 415.213 83.7418 415.867 82.9684 416.32C82.2218 416.747 81.4084 417.013 80.5284 417.12C79.6484 417.253 78.8084 417.32 78.0084 417.32ZM79.8884 413.88C80.5551 413.88 81.1551 413.84 81.6884 413.76C82.2484 413.653 82.7284 413.493 83.1284 413.28C83.5551 413.04 83.8884 412.72 84.1284 412.32C84.3684 411.867 84.5418 411.347 84.6484 410.76C84.7818 410.173 84.8484 409.48 84.8484 408.68V407.96H79.0084C78.1284 407.96 77.4484 408.027 76.9684 408.16C76.5151 408.293 76.2084 408.573 76.0484 409C75.8884 409.427 75.8084 410.08 75.8084 410.96C75.8084 411.787 75.9018 412.413 76.0884 412.84C76.2751 413.24 76.6618 413.52 77.2484 413.68C77.8618 413.813 78.7418 413.88 79.8884 413.88ZM95.4647 417V396.6H99.3447L99.5047 400.28H99.8247C100.171 399.213 100.651 398.387 101.265 397.8C101.878 397.213 102.625 396.813 103.505 396.6C104.385 396.387 105.385 396.28 106.505 396.28V400.44C104.691 400.44 103.291 400.707 102.305 401.24C101.345 401.773 100.665 402.627 100.265 403.8C99.8914 404.947 99.7047 406.453 99.7047 408.32V417H95.4647ZM110.66 417V396.6H114.54L114.7 400.28H115.02C115.367 399.213 115.847 398.387 116.46 397.8C117.073 397.213 117.82 396.813 118.7 396.6C119.58 396.387 120.58 396.28 121.7 396.28V400.44C119.887 400.44 118.487 400.707 117.5 401.24C116.54 401.773 115.86 402.627 115.46 403.8C115.087 404.947 114.9 406.453 114.9 408.32V417H110.66ZM133.98 417.32C132.273 417.32 130.847 417.213 129.7 417C128.58 416.787 127.687 416.453 127.02 416C126.38 415.52 125.9 414.88 125.58 414.08C125.287 413.28 125.087 412.28 124.98 411.08C124.9 409.88 124.86 408.44 124.86 406.76C124.86 405.107 124.9 403.68 124.98 402.48C125.087 401.28 125.287 400.28 125.58 399.48C125.9 398.68 126.38 398.053 127.02 397.6C127.687 397.12 128.58 396.787 129.7 396.6C130.847 396.387 132.273 396.28 133.98 396.28C135.713 396.28 137.14 396.387 138.26 396.6C139.407 396.787 140.3 397.12 140.94 397.6C141.607 398.053 142.087 398.68 142.38 399.48C142.7 400.28 142.9 401.28 142.98 402.48C143.087 403.68 143.14 405.107 143.14 406.76C143.14 408.44 143.087 409.88 142.98 411.08C142.9 412.28 142.7 413.28 142.38 414.08C142.087 414.88 141.607 415.52 140.94 416C140.3 416.453 139.407 416.787 138.26 417C137.14 417.213 135.713 417.32 133.98 417.32ZM133.98 413.76C135.207 413.76 136.153 413.68 136.82 413.52C137.487 413.36 137.953 413.04 138.22 412.56C138.513 412.08 138.687 411.373 138.74 410.44C138.82 409.507 138.86 408.28 138.86 406.76C138.86 405.24 138.82 404.027 138.74 403.12C138.687 402.187 138.513 401.48 138.22 401C137.953 400.52 137.487 400.213 136.82 400.08C136.153 399.92 135.207 399.84 133.98 399.84C132.78 399.84 131.847 399.92 131.18 400.08C130.513 400.213 130.033 400.52 129.74 401C129.473 401.48 129.3 402.187 129.22 403.12C129.167 404.027 129.14 405.24 129.14 406.76C129.14 408.28 129.167 409.507 129.22 410.44C129.3 411.373 129.473 412.08 129.74 412.56C130.033 413.04 130.513 413.36 131.18 413.52C131.847 413.68 132.78 413.76 133.98 413.76ZM148.668 417V387.28H152.908V417H148.668ZM159.215 417V387.28H163.455V417H159.215ZM174.962 417.32C173.575 417.32 172.402 417.133 171.442 416.76C170.508 416.387 169.802 415.773 169.322 414.92C168.842 414.04 168.602 412.853 168.602 411.36C168.602 409.787 168.788 408.547 169.162 407.64C169.535 406.707 170.175 406.04 171.082 405.64C171.988 405.24 173.268 405.04 174.922 405.04C175.188 405.04 175.575 405.053 176.082 405.08C176.615 405.08 177.215 405.093 177.882 405.12C178.575 405.12 179.255 405.133 179.922 405.16C180.615 405.16 181.242 405.173 181.802 405.2V404.24C181.802 403.2 181.735 402.387 181.602 401.8C181.468 401.213 181.188 400.787 180.762 400.52C180.362 400.227 179.775 400.04 179.002 399.96C178.228 399.88 177.228 399.84 176.002 399.84C175.415 399.84 174.722 399.867 173.922 399.92C173.148 399.947 172.388 399.987 171.642 400.04C170.895 400.093 170.322 400.16 169.922 400.24V396.88C171.015 396.667 172.215 396.52 173.522 396.44C174.828 396.333 176.135 396.28 177.442 396.28C178.962 396.28 180.228 396.373 181.242 396.56C182.282 396.747 183.122 397.04 183.762 397.44C184.402 397.84 184.882 398.36 185.202 399C185.522 399.64 185.748 400.413 185.882 401.32C186.015 402.2 186.082 403.213 186.082 404.36V417H182.162L182.002 414.36H181.762C181.308 415.213 180.695 415.867 179.922 416.32C179.175 416.747 178.362 417.013 177.482 417.12C176.602 417.253 175.762 417.32 174.962 417.32ZM176.842 413.88C177.508 413.88 178.108 413.84 178.642 413.76C179.202 413.653 179.682 413.493 180.082 413.28C180.508 413.04 180.842 412.72 181.082 412.32C181.322 411.867 181.495 411.347 181.602 410.76C181.735 410.173 181.802 409.48 181.802 408.68V407.96H175.962C175.082 407.96 174.402 408.027 173.922 408.16C173.468 408.293 173.162 408.573 173.002 409C172.842 409.427 172.762 410.08 172.762 410.96C172.762 411.787 172.855 412.413 173.042 412.84C173.228 413.24 173.615 413.52 174.202 413.68C174.815 413.813 175.695 413.88 176.842 413.88ZM198.898 417.32C197.538 417.32 196.391 417.16 195.458 416.84C194.524 416.493 193.778 415.933 193.218 415.16C192.658 414.36 192.244 413.28 191.978 411.92C191.738 410.56 191.618 408.867 191.618 406.84C191.618 404.787 191.738 403.08 191.978 401.72C192.244 400.36 192.644 399.293 193.178 398.52C193.738 397.72 194.471 397.147 195.378 396.8C196.284 396.453 197.404 396.28 198.738 396.28C199.724 396.28 200.618 396.36 201.418 396.52C202.218 396.68 202.924 396.96 203.538 397.36C204.178 397.733 204.684 398.28 205.058 399H205.338V387.28H209.578V417H205.658L205.498 414.32H205.258C204.858 415.173 204.311 415.813 203.618 416.24C202.951 416.667 202.204 416.947 201.378 417.08C200.551 417.24 199.724 417.32 198.898 417.32ZM200.618 413.56C201.791 413.56 202.698 413.413 203.338 413.12C204.004 412.8 204.471 412.307 204.738 411.64C205.004 411.027 205.164 410.32 205.218 409.52C205.298 408.72 205.338 407.787 205.338 406.72C205.338 405.707 205.298 404.827 205.218 404.08C205.164 403.307 205.018 402.653 204.778 402.12C204.484 401.4 204.004 400.88 203.338 400.56C202.698 400.24 201.791 400.08 200.618 400.08C199.551 400.08 198.698 400.16 198.058 400.32C197.444 400.453 196.978 400.747 196.658 401.2C196.364 401.627 196.164 402.293 196.058 403.2C195.951 404.08 195.898 405.28 195.898 406.8C195.898 408.32 195.951 409.533 196.058 410.44C196.164 411.32 196.378 411.987 196.698 412.44C197.018 412.893 197.484 413.2 198.098 413.36C198.738 413.493 199.578 413.56 200.618 413.56ZM224.214 417.32C222.508 417.32 221.081 417.213 219.934 417C218.814 416.787 217.921 416.453 217.254 416C216.614 415.52 216.134 414.88 215.814 414.08C215.521 413.28 215.321 412.28 215.214 411.08C215.134 409.88 215.094 408.44 215.094 406.76C215.094 405.107 215.134 403.68 215.214 402.48C215.321 401.28 215.521 400.28 215.814 399.48C216.134 398.68 216.614 398.053 217.254 397.6C217.921 397.12 218.814 396.787 219.934 396.6C221.081 396.387 222.508 396.28 224.214 396.28C225.948 396.28 227.374 396.387 228.494 396.6C229.641 396.787 230.534 397.12 231.174 397.6C231.841 398.053 232.321 398.68 232.614 399.48C232.934 400.28 233.134 401.28 233.214 402.48C233.321 403.68 233.374 405.107 233.374 406.76C233.374 408.44 233.321 409.88 233.214 411.08C233.134 412.28 232.934 413.28 232.614 414.08C232.321 414.88 231.841 415.52 231.174 416C230.534 416.453 229.641 416.787 228.494 417C227.374 417.213 225.948 417.32 224.214 417.32ZM224.214 413.76C225.441 413.76 226.388 413.68 227.054 413.52C227.721 413.36 228.188 413.04 228.454 412.56C228.748 412.08 228.921 411.373 228.974 410.44C229.054 409.507 229.094 408.28 229.094 406.76C229.094 405.24 229.054 404.027 228.974 403.12C228.921 402.187 228.748 401.48 228.454 401C228.188 400.52 227.721 400.213 227.054 400.08C226.388 399.92 225.441 399.84 224.214 399.84C223.014 399.84 222.081 399.92 221.414 400.08C220.748 400.213 220.268 400.52 219.974 401C219.708 401.48 219.534 402.187 219.454 403.12C219.401 404.027 219.374 405.24 219.374 406.76C219.374 408.28 219.401 409.507 219.454 410.44C219.534 411.373 219.708 412.08 219.974 412.56C220.268 413.04 220.748 413.36 221.414 413.52C222.081 413.68 223.014 413.76 224.214 413.76ZM238.902 417V396.6H242.782L242.942 400.28H243.262C243.609 399.213 244.089 398.387 244.702 397.8C245.316 397.213 246.062 396.813 246.942 396.6C247.822 396.387 248.822 396.28 249.942 396.28V400.44C248.129 400.44 246.729 400.707 245.742 401.24C244.782 401.773 244.102 402.627 243.702 403.8C243.329 404.947 243.142 406.453 243.142 408.32V417H238.902ZM270.226 417.32C268.866 417.32 267.719 417.16 266.786 416.84C265.853 416.493 265.106 415.933 264.546 415.16C263.986 414.36 263.573 413.28 263.306 411.92C263.066 410.56 262.946 408.867 262.946 406.84C262.946 404.787 263.066 403.08 263.306 401.72C263.573 400.36 263.973 399.293 264.506 398.52C265.066 397.72 265.799 397.147 266.706 396.8C267.613 396.453 268.733 396.28 270.066 396.28C271.053 396.28 271.946 396.36 272.746 396.52C273.546 396.68 274.253 396.96 274.866 397.36C275.506 397.733 276.013 398.28 276.386 399H276.666V387.28H280.906V417H276.986L276.826 414.32H276.586C276.186 415.173 275.639 415.813 274.946 416.24C274.279 416.667 273.533 416.947 272.706 417.08C271.879 417.24 271.053 417.32 270.226 417.32ZM271.946 413.56C273.119 413.56 274.026 413.413 274.666 413.12C275.333 412.8 275.799 412.307 276.066 411.64C276.333 411.027 276.493 410.32 276.546 409.52C276.626 408.72 276.666 407.787 276.666 406.72C276.666 405.707 276.626 404.827 276.546 404.08C276.493 403.307 276.346 402.653 276.106 402.12C275.813 401.4 275.333 400.88 274.666 400.56C274.026 400.24 273.119 400.08 271.946 400.08C270.879 400.08 270.026 400.16 269.386 400.32C268.773 400.453 268.306 400.747 267.986 401.2C267.693 401.627 267.493 402.293 267.386 403.2C267.279 404.08 267.226 405.28 267.226 406.8C267.226 408.32 267.279 409.533 267.386 410.44C267.493 411.32 267.706 411.987 268.026 412.44C268.346 412.893 268.813 413.2 269.426 413.36C270.066 413.493 270.906 413.56 271.946 413.56ZM295.903 417.32C294.169 417.32 292.729 417.213 291.583 417C290.436 416.76 289.516 416.387 288.823 415.88C288.129 415.347 287.609 414.68 287.263 413.88C286.916 413.053 286.689 412.067 286.583 410.92C286.476 409.747 286.423 408.387 286.423 406.84C286.423 405 286.516 403.413 286.702 402.08C286.889 400.747 287.276 399.653 287.863 398.8C288.449 397.92 289.356 397.28 290.583 396.88C291.836 396.48 293.503 396.28 295.583 396.28C297.209 396.28 298.543 396.413 299.583 396.68C300.623 396.92 301.436 397.307 302.023 397.84C302.636 398.373 303.076 399.067 303.343 399.92C303.636 400.747 303.823 401.747 303.903 402.92C303.983 404.067 304.023 405.373 304.023 406.84V408.2H290.703C290.703 409.4 290.756 410.373 290.863 411.12C290.969 411.84 291.209 412.4 291.583 412.8C291.983 413.173 292.596 413.44 293.423 413.6C294.276 413.733 295.423 413.8 296.863 413.8C297.476 413.8 298.143 413.787 298.863 413.76C299.609 413.733 300.369 413.68 301.143 413.6C301.916 413.52 302.609 413.453 303.223 413.4V416.72C302.636 416.827 301.929 416.92 301.103 417C300.276 417.107 299.409 417.187 298.503 417.24C297.596 417.293 296.729 417.32 295.903 417.32ZM299.943 405.92V405.16C299.943 403.96 299.863 403.013 299.703 402.32C299.569 401.6 299.329 401.067 298.983 400.72C298.663 400.347 298.209 400.107 297.623 400C297.063 399.867 296.356 399.8 295.503 399.8C294.436 399.8 293.583 399.88 292.943 400.04C292.329 400.173 291.863 400.44 291.543 400.84C291.223 401.24 290.996 401.8 290.863 402.52C290.756 403.213 290.703 404.133 290.703 405.28H300.663L299.943 405.92ZM329.056 417.32C328.069 417.32 326.976 417.293 325.776 417.24C324.602 417.187 323.442 417.107 322.296 417C321.176 416.92 320.149 416.827 319.216 416.72V413C320.176 413.08 321.176 413.16 322.216 413.24C323.282 413.32 324.296 413.387 325.256 413.44C326.216 413.467 327.042 413.48 327.736 413.48C329.149 413.48 330.256 413.413 331.056 413.28C331.856 413.147 332.496 412.933 332.976 412.64C333.296 412.427 333.522 412.16 333.656 411.84C333.816 411.52 333.909 411.147 333.936 410.72C333.989 410.267 334.016 409.773 334.016 409.24C334.016 408.52 333.989 407.92 333.936 407.44C333.882 406.96 333.762 406.587 333.576 406.32C333.389 406.053 333.096 405.867 332.696 405.76C332.296 405.627 331.776 405.52 331.136 405.44L324.576 404.68C323.296 404.52 322.242 404.253 321.416 403.88C320.616 403.48 319.989 402.96 319.536 402.32C319.109 401.68 318.816 400.92 318.656 400.04C318.496 399.16 318.416 398.187 318.416 397.12C318.416 395.333 318.656 393.92 319.136 392.88C319.616 391.84 320.296 391.053 321.176 390.52C322.082 389.96 323.149 389.6 324.376 389.44C325.602 389.253 326.962 389.16 328.456 389.16C329.496 389.16 330.562 389.2 331.656 389.28C332.749 389.333 333.776 389.413 334.736 389.52C335.722 389.6 336.536 389.72 337.176 389.88V393.52C336.509 393.413 335.722 393.32 334.816 393.24C333.936 393.16 333.016 393.107 332.056 393.08C331.096 393.027 330.202 393 329.376 393C327.989 393 326.869 393.067 326.016 393.2C325.189 393.307 324.549 393.493 324.096 393.76C323.562 394.053 323.242 394.467 323.136 395C323.029 395.507 322.976 396.147 322.976 396.92C322.976 397.827 323.029 398.533 323.136 399.04C323.269 399.52 323.549 399.853 323.976 400.04C324.429 400.227 325.109 400.373 326.016 400.48L332.576 401.24C333.402 401.32 334.149 401.453 334.816 401.64C335.482 401.8 336.069 402.08 336.576 402.48C337.109 402.88 337.522 403.453 337.816 404.2C338.002 404.573 338.136 405 338.216 405.48C338.322 405.96 338.402 406.493 338.456 407.08C338.536 407.64 338.576 408.28 338.576 409C338.576 410.52 338.416 411.787 338.096 412.8C337.802 413.813 337.376 414.627 336.816 415.24C336.282 415.827 335.616 416.28 334.816 416.6C334.016 416.893 333.136 417.08 332.176 417.16C331.216 417.267 330.176 417.32 329.056 417.32ZM352.457 417.32C350.75 417.32 349.323 417.213 348.177 417C347.057 416.787 346.163 416.453 345.497 416C344.857 415.52 344.377 414.88 344.057 414.08C343.763 413.28 343.563 412.28 343.457 411.08C343.377 409.88 343.337 408.44 343.337 406.76C343.337 405.107 343.377 403.68 343.457 402.48C343.563 401.28 343.763 400.28 344.057 399.48C344.377 398.68 344.857 398.053 345.497 397.6C346.163 397.12 347.057 396.787 348.177 396.6C349.323 396.387 350.75 396.28 352.457 396.28C354.19 396.28 355.617 396.387 356.737 396.6C357.883 396.787 358.777 397.12 359.417 397.6C360.083 398.053 360.563 398.68 360.857 399.48C361.177 400.28 361.377 401.28 361.457 402.48C361.563 403.68 361.617 405.107 361.617 406.76C361.617 408.44 361.563 409.88 361.457 411.08C361.377 412.28 361.177 413.28 360.857 414.08C360.563 414.88 360.083 415.52 359.417 416C358.777 416.453 357.883 416.787 356.737 417C355.617 417.213 354.19 417.32 352.457 417.32ZM352.457 413.76C353.683 413.76 354.63 413.68 355.297 413.52C355.963 413.36 356.43 413.04 356.697 412.56C356.99 412.08 357.163 411.373 357.217 410.44C357.297 409.507 357.337 408.28 357.337 406.76C357.337 405.24 357.297 404.027 357.217 403.12C357.163 402.187 356.99 401.48 356.697 401C356.43 400.52 355.963 400.213 355.297 400.08C354.63 399.92 353.683 399.84 352.457 399.84C351.257 399.84 350.323 399.92 349.657 400.08C348.99 400.213 348.51 400.52 348.217 401C347.95 401.48 347.777 402.187 347.697 403.12C347.643 404.027 347.617 405.24 347.617 406.76C347.617 408.28 347.643 409.507 347.697 410.44C347.777 411.373 347.95 412.08 348.217 412.56C348.51 413.04 348.99 413.36 349.657 413.52C350.323 413.68 351.257 413.76 352.457 413.76ZM368.984 417V400.16H364.944V396.6H368.984V394.12C368.984 392.813 369.078 391.747 369.264 390.92C369.451 390.067 369.758 389.4 370.184 388.92C370.638 388.44 371.224 388.093 371.944 387.88C372.691 387.64 373.598 387.493 374.664 387.44C375.731 387.36 376.984 387.32 378.424 387.32V390.52C377.304 390.52 376.398 390.56 375.704 390.64C375.038 390.693 374.518 390.813 374.144 391C373.798 391.187 373.558 391.48 373.424 391.88C373.318 392.253 373.264 392.747 373.264 393.36V396.6H378.424V400.16H373.264V417H368.984ZM384.492 417V400.16H380.412V396.6H384.492V390.68H388.732V396.6H393.492V400.16H388.732V417H384.492ZM401.693 417L395.533 396.6H399.893L404.213 412.12H404.493L409.013 396.6H412.973L417.453 412.12H417.773L422.053 396.6H426.333L420.133 417H415.093L411.053 403.56H410.733L406.773 417H401.693ZM435.391 417.32C434.005 417.32 432.831 417.133 431.871 416.76C430.938 416.387 430.231 415.773 429.751 414.92C429.271 414.04 429.031 412.853 429.031 411.36C429.031 409.787 429.218 408.547 429.591 407.64C429.965 406.707 430.605 406.04 431.511 405.64C432.418 405.24 433.698 405.04 435.351 405.04C435.618 405.04 436.005 405.053 436.511 405.08C437.045 405.08 437.645 405.093 438.311 405.12C439.005 405.12 439.685 405.133 440.351 405.16C441.045 405.16 441.671 405.173 442.231 405.2V404.24C442.231 403.2 442.165 402.387 442.031 401.8C441.898 401.213 441.618 400.787 441.191 400.52C440.791 400.227 440.205 400.04 439.431 399.96C438.658 399.88 437.658 399.84 436.431 399.84C435.845 399.84 435.151 399.867 434.351 399.92C433.578 399.947 432.818 399.987 432.071 400.04C431.325 400.093 430.751 400.16 430.351 400.24V396.88C431.445 396.667 432.645 396.52 433.951 396.44C435.258 396.333 436.565 396.28 437.871 396.28C439.391 396.28 440.658 396.373 441.671 396.56C442.711 396.747 443.551 397.04 444.191 397.44C444.831 397.84 445.311 398.36 445.631 399C445.951 399.64 446.178 400.413 446.311 401.32C446.445 402.2 446.511 403.213 446.511 404.36V417H442.591L442.431 414.36H442.191C441.738 415.213 441.125 415.867 440.351 416.32C439.605 416.747 438.791 417.013 437.911 417.12C437.031 417.253 436.191 417.32 435.391 417.32ZM437.271 413.88C437.938 413.88 438.538 413.84 439.071 413.76C439.631 413.653 440.111 413.493 440.511 413.28C440.938 413.04 441.271 412.72 441.511 412.32C441.751 411.867 441.925 411.347 442.031 410.76C442.165 410.173 442.231 409.48 442.231 408.68V407.96H436.391C435.511 407.96 434.831 408.027 434.351 408.16C433.898 408.293 433.591 408.573 433.431 409C433.271 409.427 433.191 410.08 433.191 410.96C433.191 411.787 433.285 412.413 433.471 412.84C433.658 413.24 434.045 413.52 434.631 413.68C435.245 413.813 436.125 413.88 437.271 413.88ZM452.848 417V396.6H456.728L456.888 400.28H457.208C457.554 399.213 458.034 398.387 458.648 397.8C459.261 397.213 460.008 396.813 460.888 396.6C461.768 396.387 462.768 396.28 463.888 396.28V400.44C462.074 400.44 460.674 400.707 459.688 401.24C458.728 401.773 458.048 402.627 457.648 403.8C457.274 404.947 457.088 406.453 457.088 408.32V417H452.848ZM476.528 417.32C474.794 417.32 473.354 417.213 472.208 417C471.061 416.76 470.141 416.387 469.448 415.88C468.754 415.347 468.234 414.68 467.888 413.88C467.541 413.053 467.314 412.067 467.208 410.92C467.101 409.747 467.048 408.387 467.048 406.84C467.048 405 467.141 403.413 467.327 402.08C467.514 400.747 467.901 399.653 468.488 398.8C469.074 397.92 469.981 397.28 471.208 396.88C472.461 396.48 474.128 396.28 476.208 396.28C477.834 396.28 479.168 396.413 480.208 396.68C481.248 396.92 482.061 397.307 482.648 397.84C483.261 398.373 483.701 399.067 483.968 399.92C484.261 400.747 484.448 401.747 484.528 402.92C484.608 404.067 484.648 405.373 484.648 406.84V408.2H471.328C471.328 409.4 471.381 410.373 471.488 411.12C471.594 411.84 471.834 412.4 472.208 412.8C472.608 413.173 473.221 413.44 474.048 413.6C474.901 413.733 476.048 413.8 477.488 413.8C478.101 413.8 478.768 413.787 479.488 413.76C480.234 413.733 480.994 413.68 481.768 413.6C482.541 413.52 483.234 413.453 483.848 413.4V416.72C483.261 416.827 482.554 416.92 481.728 417C480.901 417.107 480.034 417.187 479.128 417.24C478.221 417.293 477.354 417.32 476.528 417.32ZM480.568 405.92V405.16C480.568 403.96 480.488 403.013 480.328 402.32C480.194 401.6 479.954 401.067 479.608 400.72C479.288 400.347 478.834 400.107 478.248 400C477.688 399.867 476.981 399.8 476.128 399.8C475.061 399.8 474.208 399.88 473.568 400.04C472.954 400.173 472.488 400.44 472.168 400.84C471.848 401.24 471.621 401.8 471.488 402.52C471.381 403.213 471.328 404.133 471.328 405.28H481.288L480.568 405.92Z" fill="#0000FF"/>
<path d="M6.66504 450.203L10.8486 460.645L15.0322 450.203H17.2207V463H15.5332V458.017L15.6914 452.638L11.4902 463H10.1982L6.00586 452.664L6.17285 458.017V463H4.48535V450.203H6.66504ZM25.8164 463C25.7227 462.812 25.6465 462.479 25.5879 461.998C24.832 462.783 23.9297 463.176 22.8809 463.176C21.9434 463.176 21.1729 462.912 20.5693 462.385C19.9717 461.852 19.6729 461.178 19.6729 460.363C19.6729 459.373 20.0479 458.605 20.7979 458.061C21.5537 457.51 22.6143 457.234 23.9795 457.234H25.5615V456.487C25.5615 455.919 25.3916 455.468 25.0518 455.134C24.7119 454.794 24.2109 454.624 23.5488 454.624C22.9688 454.624 22.4824 454.771 22.0898 455.063C21.6973 455.356 21.501 455.711 21.501 456.127H19.8662C19.8662 455.652 20.0332 455.195 20.3672 454.756C20.707 454.311 21.1641 453.959 21.7383 453.701C22.3184 453.443 22.9541 453.314 23.6455 453.314C24.7412 453.314 25.5996 453.59 26.2207 454.141C26.8418 454.686 27.1641 455.438 27.1875 456.399V460.776C27.1875 461.649 27.2988 462.344 27.5215 462.859V463H25.8164ZM23.1182 461.761C23.6279 461.761 24.1113 461.629 24.5684 461.365C25.0254 461.102 25.3564 460.759 25.5615 460.337V458.386H24.2871C22.2949 458.386 21.2988 458.969 21.2988 460.135C21.2988 460.645 21.4688 461.043 21.8086 461.33C22.1484 461.617 22.585 461.761 23.1182 461.761ZM35.2734 460.478C35.2734 460.038 35.1064 459.698 34.7725 459.458C34.4443 459.212 33.8672 459.001 33.041 458.825C32.2207 458.649 31.5674 458.438 31.0811 458.192C30.6006 457.946 30.2432 457.653 30.0088 457.313C29.7803 456.974 29.666 456.569 29.666 456.101C29.666 455.321 29.9941 454.662 30.6504 454.123C31.3125 453.584 32.1562 453.314 33.1816 453.314C34.2598 453.314 35.1328 453.593 35.8008 454.149C36.4746 454.706 36.8115 455.418 36.8115 456.285H35.1768C35.1768 455.84 34.9863 455.456 34.6055 455.134C34.2305 454.812 33.7559 454.65 33.1816 454.65C32.5898 454.65 32.127 454.779 31.793 455.037C31.459 455.295 31.292 455.632 31.292 456.048C31.292 456.44 31.4473 456.736 31.7578 456.936C32.0684 457.135 32.6279 457.325 33.4365 457.507C34.251 457.688 34.9102 457.905 35.4141 458.157C35.918 458.409 36.29 458.714 36.5303 459.071C36.7764 459.423 36.8994 459.854 36.8994 460.363C36.8994 461.213 36.5596 461.896 35.8799 462.411C35.2002 462.921 34.3184 463.176 33.2344 463.176C32.4727 463.176 31.7988 463.041 31.2129 462.771C30.627 462.502 30.167 462.127 29.833 461.646C29.5049 461.16 29.3408 460.636 29.3408 460.073H30.9668C30.9961 460.618 31.2129 461.052 31.6172 461.374C32.0273 461.69 32.5664 461.849 33.2344 461.849C33.8496 461.849 34.3418 461.726 34.7109 461.479C35.0859 461.228 35.2734 460.894 35.2734 460.478ZM49.0195 460.478C49.0195 460.038 48.8525 459.698 48.5186 459.458C48.1904 459.212 47.6133 459.001 46.7871 458.825C45.9668 458.649 45.3135 458.438 44.8271 458.192C44.3467 457.946 43.9893 457.653 43.7549 457.313C43.5264 456.974 43.4121 456.569 43.4121 456.101C43.4121 455.321 43.7402 454.662 44.3965 454.123C45.0586 453.584 45.9023 453.314 46.9277 453.314C48.0059 453.314 48.8789 453.593 49.5469 454.149C50.2207 454.706 50.5576 455.418 50.5576 456.285H48.9229C48.9229 455.84 48.7324 455.456 48.3516 455.134C47.9766 454.812 47.502 454.65 46.9277 454.65C46.3359 454.65 45.873 454.779 45.5391 455.037C45.2051 455.295 45.0381 455.632 45.0381 456.048C45.0381 456.44 45.1934 456.736 45.5039 456.936C45.8145 457.135 46.374 457.325 47.1826 457.507C47.9971 457.688 48.6562 457.905 49.1602 458.157C49.6641 458.409 50.0361 458.714 50.2764 459.071C50.5225 459.423 50.6455 459.854 50.6455 460.363C50.6455 461.213 50.3057 461.896 49.626 462.411C48.9463 462.921 48.0645 463.176 46.9805 463.176C46.2188 463.176 45.5449 463.041 44.959 462.771C44.373 462.502 43.9131 462.127 43.5791 461.646C43.251 461.16 43.0869 460.636 43.0869 460.073H44.7129C44.7422 460.618 44.959 461.052 45.3633 461.374C45.7734 461.69 46.3125 461.849 46.9805 461.849C47.5957 461.849 48.0879 461.726 48.457 461.479C48.832 461.228 49.0195 460.894 49.0195 460.478ZM52.333 458.157C52.333 457.226 52.5146 456.388 52.8779 455.644C53.2471 454.899 53.7568 454.325 54.4072 453.921C55.0635 453.517 55.8105 453.314 56.6484 453.314C57.9434 453.314 58.9893 453.763 59.7861 454.659C60.5889 455.556 60.9902 456.748 60.9902 458.236V458.351C60.9902 459.276 60.8115 460.108 60.4541 460.847C60.1025 461.579 59.5957 462.15 58.9336 462.561C58.2773 462.971 57.5215 463.176 56.666 463.176C55.377 463.176 54.3311 462.728 53.5283 461.831C52.7314 460.935 52.333 459.748 52.333 458.271V458.157ZM53.9678 458.351C53.9678 459.405 54.2109 460.252 54.6973 460.891C55.1895 461.529 55.8457 461.849 56.666 461.849C57.4922 461.849 58.1484 461.526 58.6348 460.882C59.1211 460.231 59.3643 459.323 59.3643 458.157C59.3643 457.114 59.1152 456.271 58.6172 455.626C58.125 454.976 57.4688 454.65 56.6484 454.65C55.8457 454.65 55.1982 454.97 54.7061 455.608C54.2139 456.247 53.9678 457.161 53.9678 458.351ZM71.0801 458.351C71.0801 459.804 70.7461 460.973 70.0781 461.857C69.4102 462.736 68.5137 463.176 67.3887 463.176C66.1875 463.176 65.2588 462.751 64.6025 461.901L64.5234 463H63.0293V449.5H64.6553V454.536C65.3115 453.722 66.2168 453.314 67.3711 453.314C68.5254 453.314 69.4307 453.751 70.0869 454.624C70.749 455.497 71.0801 456.692 71.0801 458.21V458.351ZM69.4541 458.166C69.4541 457.059 69.2402 456.203 68.8125 455.6C68.3848 454.996 67.7695 454.694 66.9668 454.694C65.8945 454.694 65.124 455.192 64.6553 456.188V460.302C65.1533 461.298 65.9297 461.796 66.9844 461.796C67.7637 461.796 68.3701 461.494 68.8037 460.891C69.2373 460.287 69.4541 459.379 69.4541 458.166ZM77.7334 454.949C77.4873 454.908 77.2207 454.888 76.9336 454.888C75.8672 454.888 75.1436 455.342 74.7627 456.25V463H73.1367V453.49H74.7188L74.7451 454.589C75.2783 453.739 76.0342 453.314 77.0127 453.314C77.3291 453.314 77.5693 453.355 77.7334 453.438V454.949ZM83.0068 463.176C81.7178 463.176 80.6689 462.754 79.8604 461.91C79.0518 461.061 78.6475 459.927 78.6475 458.509V458.21C78.6475 457.267 78.8262 456.426 79.1836 455.688C79.5469 454.943 80.0508 454.363 80.6953 453.947C81.3457 453.525 82.0488 453.314 82.8047 453.314C84.041 453.314 85.002 453.722 85.6875 454.536C86.373 455.351 86.7158 456.517 86.7158 458.034V458.711H80.2734C80.2969 459.648 80.5693 460.407 81.0908 460.987C81.6182 461.562 82.2861 461.849 83.0947 461.849C83.6689 461.849 84.1553 461.731 84.5537 461.497C84.9521 461.263 85.3008 460.952 85.5996 460.565L86.5928 461.339C85.7959 462.563 84.6006 463.176 83.0068 463.176ZM82.8047 454.65C82.1484 454.65 81.5977 454.891 81.1523 455.371C80.707 455.846 80.4316 456.514 80.3262 457.375H85.0898V457.252C85.043 456.426 84.8203 455.787 84.4219 455.336C84.0234 454.879 83.4844 454.65 82.8047 454.65ZM94.5996 453.49L94.6436 454.545C95.3408 453.725 96.2812 453.314 97.4648 453.314C98.7949 453.314 99.7002 453.824 100.181 454.844C100.497 454.387 100.907 454.018 101.411 453.736C101.921 453.455 102.521 453.314 103.213 453.314C105.299 453.314 106.359 454.419 106.395 456.628V463H104.769V456.725C104.769 456.045 104.613 455.538 104.303 455.204C103.992 454.864 103.471 454.694 102.738 454.694C102.135 454.694 101.634 454.876 101.235 455.239C100.837 455.597 100.605 456.08 100.541 456.689V463H98.9062V456.769C98.9062 455.386 98.2295 454.694 96.876 454.694C95.8096 454.694 95.0801 455.148 94.6875 456.057V463H93.0615V453.49H94.5996ZM110.622 463H108.987V453.49H110.622V463ZM110.64 449.509H112.608L110.253 452.093H108.943L110.64 449.509Z" fill="#0A192F"/>
</svg>
