<svg width="70" height="65" viewBox="0 0 70 65" fill="none" xmlns="http://www.w3.org/2000/svg">
<path d="M61.3751 15.0136H39.2199C38.3205 15.0136 37.4421 14.6707 36.8355 14.0878L29.9226 7.3258C28.2609 5.78777 25.9874 4.98441 23.6848 4.99672H8.62475C3.86927 4.99659 0 8.58949 0 13.0052V51.9953C0 56.4111 3.86927 60.004 8.62475 60.004H61.4068H61.4148C66.1676 59.9845 70.0211 56.3744 69.9999 51.9708V23.0221C69.9999 18.6063 66.1306 15.0136 61.3751 15.0136ZM64.7249 51.9807C64.7328 53.6951 63.2374 55.0984 61.4016 55.1058H8.62475C6.7785 55.1058 5.27515 53.7098 5.27515 51.9954V13.0052C5.27515 11.2908 6.7785 9.89482 8.62475 9.89228H23.7535C23.7825 9.89228 23.8114 9.89228 23.8406 9.89228C24.7214 9.89228 25.5761 10.218 26.151 10.7471L33.0269 17.4772C34.641 19.025 36.8988 19.9117 39.2199 19.9117H61.3751C63.2214 19.9117 64.7247 21.3076 64.7247 23.022V51.9807H64.7249Z" fill="#64FFDA"/>
</svg>
