<svg width="50" height="50" viewBox="0 0 50 50" fill="none" xmlns="http://www.w3.org/2000/svg">
<path d="M13.0781 4L1.14844 25L13.0781 46H36.9219L48.8477 25L36.9219 4H13.0781ZM17.4648 9H31.1406L20.8945 12.5898L17.4648 9ZM34.6836 10.0664L38.2617 16.3594L31.3594 23.5273L26.582 18.5312L34.6836 10.0664ZM15 10.625V14.6562L12.1406 15.6562L15 10.625ZM30.793 11.2383L25.2031 17.418L22.4141 14.1758L30.793 11.2383ZM17 11.4062L18.8242 13.3125L17 13.9531V11.4062ZM20.3438 14.9023L23.8164 18.5312L19.0742 23.4883L17 21.3594V16.0742L20.3438 14.9023ZM15 16.7734V19.3008L13.168 17.418L15 16.7734ZM10.8594 17.9102L15 22.1719V27.7461L10.8555 32.0781L6.83203 25L10.8594 17.9102ZM39.6914 18.8867L43.168 25L39.2969 31.8164L37.5391 29.9844L39.6914 18.8867ZM25.2031 19.9805L29.9727 24.9688L25.2656 29.8594L20.4688 24.9258L25.2031 19.9805ZM37.418 20.1211L35.8438 28.2148L32.7461 24.9688L37.418 20.1211ZM17 24.2305L17.6875 24.9375L17 25.6562V24.2305ZM19.082 26.3711L23.875 31.2969L23.1992 32H17V28.5469L19.082 26.3711ZM31.3555 26.4102L35.3789 30.6172L35.1094 32H27.3438L26.6562 31.293L31.3555 26.4102ZM15 30.6406V32H13.6992L15 30.6406ZM11.9453 34H15V39.375L11.9453 34ZM17 34H21.2695L17 38.4375V34ZM24.0469 34H26.5L33.3086 41H17.3086L24.0469 34ZM29.293 34H34.7227L33.8164 38.6562L29.293 34ZM36.7617 34H38.0547L36.0898 37.457L36.7617 34Z" fill="black"/>
</svg>
