<svg width="30" height="30" viewBox="0 0 30 30" fill="none" xmlns="http://www.w3.org/2000/svg">
<path d="M5.2775 24.7224C6.49625 25.9411 8.09625 26.5499 9.69625 26.5499C11.2975 26.5486 12.8988 25.9411 14.1163 24.7224L17.6513 21.1861L15.8838 19.4186L12.3488 22.9549C10.8875 24.4136 8.50875 24.4161 7.045 22.9549C5.58376 21.4924 5.58376 19.1136 7.045 17.6511L10.5813 14.1161L8.81376 12.3486L5.2775 15.8836C2.84125 18.3199 2.84125 22.2861 5.2775 24.7224ZM24.7225 14.1161C27.1575 11.6799 27.1575 7.71363 24.7225 5.27738C22.285 2.83988 18.3188 2.84238 15.8838 5.27738L12.3488 8.81363L14.1163 10.5811L17.6513 7.04488C19.1138 5.58613 21.4925 5.58363 22.955 7.04488C24.4163 8.50738 24.4163 10.8861 22.955 12.3486L19.4188 15.8836L21.1863 17.6511L24.7225 14.1161Z" fill="#8892B0"/>
<path d="M10.5796 21.188L8.81185 19.4202L19.4195 8.81289L21.1873 10.5807L10.5796 21.188Z" fill="#8892B0"/>
</svg>
