<svg width="35" height="35" viewBox="0 0 35 35" fill="none" xmlns="http://www.w3.org/2000/svg">
<path fill-rule="evenodd" clip-rule="evenodd" d="M17.5379 2.91666C9.50395 2.91666 2.99249 9.42812 2.99249 17.4621C2.99249 23.8875 7.15895 29.3402 12.9398 31.2652C13.6675 31.3964 13.93 30.9487 13.93 30.5637C13.93 30.2181 13.9183 29.3023 13.914 28.0904C9.86708 28.9683 9.01249 26.1392 9.01249 26.1392C8.35333 24.4592 7.39812 24.0114 7.39812 24.0114C6.07833 23.1087 7.49874 23.1292 7.49874 23.1292C8.95999 23.2312 9.72562 24.6283 9.72562 24.6283C11.0235 26.8508 13.1323 26.2092 13.9577 25.8373C14.0904 24.8967 14.4696 24.255 14.8837 23.8919C11.655 23.5258 8.25999 22.2775 8.25999 16.7023C8.25999 15.1171 8.82729 13.8162 9.75333 12.8012C9.60604 12.4323 9.10291 10.9521 9.8977 8.95124C9.8977 8.95124 11.1183 8.55895 13.8965 10.4402C15.0829 10.1174 16.3068 9.95267 17.5365 9.9502C18.7661 9.95219 19.9901 10.117 21.1765 10.4402C23.956 8.55749 25.1752 8.95124 25.1752 8.95124C25.97 10.9521 25.4712 12.4323 25.3196 12.8012C26.2529 13.8162 26.8129 15.1156 26.8129 16.7023C26.8129 22.2921 23.415 23.52 20.1746 23.8802C20.6923 24.3294 21.159 25.216 21.159 26.5723C21.159 28.5177 21.1415 30.0869 21.1415 30.5637C21.1415 30.9531 21.401 31.4052 22.1433 31.2623C27.9212 29.3344 32.0833 23.886 32.0833 17.4621C32.0833 9.42812 25.5719 2.91666 17.5379 2.91666Z" fill="#0A192F"/>
</svg>
