<svg width="35" height="36" viewBox="0 0 35 36" fill="none" xmlns="http://www.w3.org/2000/svg">
<path d="M7.26688 11.4069C9.02913 11.4069 10.4577 9.97832 10.4577 8.21607C10.4577 6.45382 9.02913 5.02524 7.26688 5.02524C5.50463 5.02524 4.07605 6.45382 4.07605 8.21607C4.07605 9.97832 5.50463 11.4069 7.26688 11.4069Z" fill="#0A192F"/>
<path d="M13.4706 13.8248V31.5275H18.9671V22.7731C18.9671 20.4631 19.4017 18.226 22.2658 18.226C25.0906 18.226 25.1256 20.8671 25.1256 22.919V31.529H30.625V21.8208C30.625 17.0521 29.5983 13.3873 24.0246 13.3873C21.3485 13.3873 19.5548 14.8558 18.8213 16.2456H18.7469V13.8248H13.4706ZM4.51355 13.8248H10.0188V31.5275H4.51355V13.8248Z" fill="#0A192F"/>
</svg>
