<svg width="35" height="35" viewBox="0 0 35 35" fill="none" xmlns="http://www.w3.org/2000/svg">
<path d="M29.1666 5.83334H8.74998C7.14144 5.83334 5.83331 7.14147 5.83331 8.75001V16.0417H8.74998V11.6667L18.0833 18.6667C18.3358 18.8558 18.6428 18.958 18.9583 18.958C19.2738 18.958 19.5808 18.8558 19.8333 18.6667L29.1666 11.6667V24.7917H17.5V27.7083H29.1666C30.7752 27.7083 32.0833 26.4002 32.0833 24.7917V8.75001C32.0833 7.14147 30.7752 5.83334 29.1666 5.83334ZM18.9583 15.6771L9.72123 8.75001H28.1954L18.9583 15.6771Z" fill="#0A192F"/>
<path d="M2.91669 17.5H13.125V20.4167H2.91669V17.5ZM5.83335 21.875H14.5834V24.7917H5.83335V21.875ZM10.2084 26.25H16.0417V29.1667H10.2084V26.25Z" fill="#0A192F"/>
</svg>
