<svg width="35" height="36" viewBox="0 0 35 36" fill="none" xmlns="http://www.w3.org/2000/svg">
<path fill-rule="evenodd" clip-rule="evenodd" d="M26.8377 9.03728C25.6249 7.81649 24.1819 6.84849 22.5923 6.18937C21.0027 5.53026 19.2981 5.19312 17.5773 5.19749C10.3615 5.19749 4.48729 11.0702 4.48438 18.2889C4.48438 20.596 5.08667 22.8477 6.23146 24.8339L4.375 31.6167L11.3152 29.7952C13.2349 30.8402 15.3857 31.3882 17.5715 31.3892H17.5773C24.7917 31.3892 30.6658 25.5164 30.6687 18.2977C30.6737 16.5776 30.3377 14.8735 29.6801 13.284C29.0225 11.6946 28.0565 10.2512 26.8377 9.03728ZM17.5773 29.1798H17.5729C15.6239 29.18 13.7107 28.6556 12.0342 27.6617L11.6375 27.4254L7.51917 28.506L8.61729 24.4912L8.35917 24.08C7.26948 22.3452 6.69263 20.3376 6.69521 18.2889C6.69812 12.2894 11.5792 7.40832 17.5817 7.40832C19.0112 7.40515 20.4272 7.68553 21.7476 8.23323C23.0681 8.78094 24.2668 9.58509 25.2744 10.5992C26.2874 11.6084 27.0903 12.8084 27.6367 14.1298C28.1831 15.4512 28.4623 16.8678 28.4579 18.2977C28.455 24.2973 23.574 29.1798 17.5773 29.1798ZM23.5462 21.0292C23.2181 20.8644 21.611 20.0739 21.3106 19.9646C21.0117 19.8552 20.7944 19.8012 20.5756 20.1279C20.3569 20.4546 19.7298 21.191 19.5387 21.4098C19.3477 21.6285 19.1567 21.6548 18.83 21.4914C18.5033 21.3281 17.449 20.9825 16.1992 19.8683C15.2265 19.0006 14.5702 17.9302 14.3792 17.6021C14.1881 17.2739 14.3587 17.0975 14.5235 16.9342C14.6708 16.7883 14.8502 16.5521 15.0135 16.361C15.1769 16.17 15.2308 16.0344 15.3402 15.8156C15.4496 15.5969 15.3956 15.4058 15.3125 15.2425C15.2308 15.0777 14.576 13.4677 14.3033 12.8129C14.0394 12.1785 13.7696 12.2631 13.5683 12.2544C13.3599 12.2458 13.1513 12.2419 12.9427 12.2427C12.7768 12.2469 12.6136 12.2854 12.4633 12.3556C12.313 12.4259 12.1788 12.5265 12.0692 12.651C11.7687 12.9792 10.9244 13.7696 10.9244 15.3796C10.9244 16.9896 12.0969 18.5456 12.2602 18.7644C12.4235 18.9831 14.5673 22.2862 17.8485 23.7037C18.6302 24.0406 19.2398 24.2419 19.7137 24.3935C20.4969 24.6429 21.21 24.6064 21.7744 24.5233C22.4029 24.43 23.7096 23.7329 23.9823 22.9687C24.255 22.2046 24.255 21.5498 24.1733 21.4127C24.0917 21.2756 23.8715 21.1925 23.5462 21.0292Z" fill="#0A192F"/>
</svg>
